<?xml version="1.0" encoding="UTF-8"?>
<svg id="Layer_11" data-name="Layer 11" xmlns="http://www.w3.org/2000/svg" xmlns:xlink="http://www.w3.org/1999/xlink" viewBox="2 0 703.17 489.83">
  <defs>
    <style>
      .cls-1 {
        fill: url(#linear-gradient);
      }

      .cls-1, .cls-2, .cls-3, .cls-4, .cls-5, .cls-6, .cls-7, .cls-8, .cls-9 {
        stroke-width: 0px;
      }

      .cls-10 {
        fill: url(#radial-gradient-2);
      }

      .cls-10, .cls-11, .cls-12 {
        stroke-miterlimit: 10;
      }

      .cls-10, .cls-12 {
        stroke: #231f20;
      }

      .cls-2 {
        fill: #8e5924;
      }

      .cls-11 {
        fill: none;
        stroke: #506e32;
        stroke-linecap: round;
        stroke-width: 3px;
      }

      .cls-12 {
        fill: url(#radial-gradient-5);
      }

      .cls-3 {
        fill: url(#radial-gradient-7);
      }

      .cls-4 {
        fill: #231f20;
      }

      .cls-5 {
        fill: url(#radial-gradient);
      }

      .cls-6 {
        fill: #002a26;
      }

      .cls-7 {
        fill: url(#radial-gradient-6);
      }

      .cls-8 {
        fill: url(#radial-gradient-3);
      }

      .cls-9 {
        fill: url(#radial-gradient-4);
      }
    </style>
    <radialGradient id="radial-gradient" cx="397.35" cy="406.43" fx="397.35" fy="406.43" r="352.32" gradientUnits="userSpaceOnUse">
      <stop offset="0" stop-color="#77a145"/>
      <stop offset=".53" stop-color="#37613d"/>
      <stop offset=".84" stop-color="#002004"/>
      <stop offset=".99" stop-color="#000"/>
    </radialGradient>
    <linearGradient id="linear-gradient" x1="388.34" y1="397.61" x2="388.93" y2="149.31" gradientUnits="userSpaceOnUse">
      <stop offset=".04" stop-color="#0a3a35"/>
      <stop offset=".45" stop-color="#002a26"/>
      <stop offset=".93" stop-color="#000702"/>
    </linearGradient>
    <radialGradient id="radial-gradient-2" cx="824.63" cy="256.99" fx="824.63" fy="256.99" r="50.42" gradientTransform="translate(1117.3) rotate(-180) scale(1 -1)" gradientUnits="userSpaceOnUse">
      <stop offset="0" stop-color="#ecc729"/>
      <stop offset=".38" stop-color="#bba41a"/>
      <stop offset=".85" stop-color="#554c00"/>
    </radialGradient>
    <radialGradient id="radial-gradient-3" cx="294.75" cy="265.69" fx="294.75" fy="265.69" r="8.25" gradientUnits="userSpaceOnUse">
      <stop offset="0" stop-color="#fff"/>
      <stop offset="1" stop-color="#fff" stop-opacity="0"/>
    </radialGradient>
    <radialGradient id="radial-gradient-4" cx="291.31" cy="273.95" fx="291.31" fy="273.95" r="3.44" xlink:href="#radial-gradient-3"/>
    <radialGradient id="radial-gradient-5" cx="787.77" cy="256.99" fx="787.77" fy="256.99" r="50.42" gradientTransform="translate(-301.34)" xlink:href="#radial-gradient-2"/>
    <radialGradient id="radial-gradient-6" cx="331.61" cy="265.69" fx="331.61" fy="265.69" r="8.25" gradientTransform="translate(815.96) rotate(-180) scale(1 -1)" xlink:href="#radial-gradient-3"/>
    <radialGradient id="radial-gradient-7" cx="328.17" cy="273.95" fx="328.17" fy="273.95" r="3.44" gradientTransform="translate(815.96) rotate(-180) scale(1 -1)" xlink:href="#radial-gradient-3"/>
  </defs>
  <rect class="cls-5" x="62.1" y="55.77" width="669.33" height="366.07"/>
  <path class="cls-1" d="m410.92,422.26c3.15-4.83,6.38-10.75,9.07-17.76,2.93-7.63,7.05-18.31,6.32-32-.87-16.42-7.8-20.1-4.74-32.4,2.18-8.75,6.69-10.93,5.53-17.78-1.09-6.46-5.5-6.84-9.88-16.59-1.42-3.17-4.14-9.42-3.6-17.13.52-7.43,3.83-12.72,5.18-14.87,12.11-19.36,50.57-36.74,50.57-36.74,32.53-16.27,49.14-24.63,65.19-37.93,18.17-15.06,24.15-23.52,26.47-27.26,3.77-6.07,6.1-11.54,7.51-15.28-54.52,0-109.04,0-163.56,0l-32.12-.35h-163.56c1.4,3.74,3.74,9.21,7.51,15.28,2.32,3.74,8.3,12.2,26.47,27.26,16.04,13.29,32.65,21.66,65.19,37.93,0,0,38.46,17.38,50.57,36.74,1.35,2.15,4.66,7.45,5.18,14.87.54,7.71-2.18,13.96-3.6,17.13-4.38,9.76-8.79,10.13-9.88,16.59-1.16,6.85,3.36,9.03,5.53,17.78,3.06,12.3-3.87,15.97-4.74,32.4-.72,13.69,3.39,24.37,6.32,32,2.76,7.18,6.08,13.21,9.3,18.11h43.77Z"/>
  <path class="cls-2" d="m495.76,247.37c1.21,4.04,2.16,8.05,2.16,10.67,0,7.16-7.14,24.82-7.14,24.82,0,0-7.14-17.65-7.14-24.82,0-.9.11-1.95.31-3.12l11.81-7.54Z"/>
  <path class="cls-6" d="m413.51,421.77c1.56-2,3.8-4.87,6.52-8.3,9.58-12.07,10.98-13.32,12.74-14.22,2.1-1.07,8.79-3.74,21.63,3.26-1,1.16-2.66,2.87-5.04,4.44-4.14,2.75-6.13,2.23-13.33,5.04-6.62,2.58-9.69,4.87-10.67,5.63-1.99,1.54-3.47,3.05-4.44,4.15h-7.41Z"/>
  <path class="cls-4" d="m406.1,416.43c5.59-12.29,13.35-23.53,22.22-33.69,7.78-9.96,17.56-7.96,26.4-.71,3.15,2.78,6.66,4.95,10.05,7.44-3.14-1.25-6.31-2.49-9.26-4.2-1.5-.88-2.84-1.84-4.25-2.52-7.95-4.37-13.97-4.99-20.01,2.59-8.94,9.94-17.06,20.41-25.15,31.1h0Z"/>
  <path class="cls-10" d="m251.39,239.82c0,27.55,22.33,49.88,49.88,49.88,6.52,0,12.75-1.25,18.46-3.53,0,0-4.4-22.19-22.81-38.46s-44.23-19.26-44.23-19.26c-.85,3.65-1.3,7.46-1.3,11.37Z"/>
  <path class="cls-2" d="m287.67,278.52h0s0,0,0,0c-10.64-10.64-12.26-26.9-4.86-39.25,1.33-2.22,11.2,1.92,12.72,6.61,3.59,11.12.97,23.81-7.86,32.64Z"/>
  <path class="cls-4" d="m320.95,289.7c-5.56-12.07-10.22-24.29-18.41-34.54-11.37-13.44-28.13-20.09-44.71-25.02-4.25-1.37-8.55-2.8-12.52-4.89,0,0,.05-.12.05-.12,8.62,2.48,17.48,3.37,26.15,5.77,13.28,3.48,26.05,10.36,35.08,20.86,8.68,10.74,13.08,24.43,14.35,37.93h0Z"/>
  <path class="cls-6" d="m364.95,422.1c-1.56-2-3.8-4.87-6.52-8.3-9.58-12.07-10.98-13.32-12.74-14.22-2.1-1.07-8.79-3.74-21.63,3.26,1,1.16,2.66,2.87,5.04,4.44,4.14,2.75,6.13,2.23,13.33,5.04,6.62,2.58,9.69,4.87,10.67,5.63,1.99,1.54,3.47,3.05,4.44,4.15h7.41Z"/>
  <path class="cls-4" d="m372.35,416.77c-8.09-10.69-16.21-21.16-25.15-31.1-6.04-7.58-12.07-6.96-20.01-2.59-1.41.68-2.75,1.64-4.25,2.52-2.94,1.72-6.11,2.95-9.26,4.2,3.38-2.49,6.9-4.66,10.05-7.44,8.85-7.25,18.63-9.25,26.4.71,8.87,10.16,16.63,21.4,22.22,33.69h0Z"/>
  <path class="cls-4" d="m328.59,269.1c6,9.45,18.57,14.91,29.2,10.64,8.64-3.69,12.61-13.89,12.9-22.8.21-9.74-5.32-18.7-12.51-24.96,0,0,.36-.51.36-.51,9.53,6.05,16.34,17.07,15.37,28.61-1.09,14.69-11.49,27.64-27.35,24.52-8.23-1.47-15.77-7.32-18.52-15.22,0,0,.55-.28.55-.28h0Z"/>
  <circle class="cls-8" cx="294.75" cy="265.69" r="8.25"/>
  <circle class="cls-9" cx="291.31" cy="273.95" r="3.44"/>
  <path class="cls-11" d="m518.46,347.19c5.38,4.77,13.26,4.3,17.35-.03,4.6-4.88,3.92-14.12-2.81-18.79"/>
  <path class="cls-11" d="m518.72,369.22c5.38,4.77,13.26,4.3,17.35-.03,4.6-4.88,3.92-14.12-2.81-18.79"/>
  <path class="cls-11" d="m535.78,349.96c5.38,4.77,13.26,4.3,17.35-.03,4.6-4.88,3.92-14.12-2.81-18.79"/>
  <path class="cls-11" d="m483.65,342.14c2.27,6.83,9.32,10.36,15.03,8.66,6.43-1.92,10.46-10.25,6.98-17.67"/>
  <path class="cls-11" d="m205.22,373.92c-3.2,5.93-1.08,13.01,3.75,15.8,5.43,3.15,13.71.54,16.52-6.59"/>
  <path class="cls-11" d="m206.42,390.3c-3.2,5.93-1.08,13.01,3.75,15.8,5.43,3.15,13.71.54,16.52-6.59"/>
  <g>
    <path class="cls-12" d="m527.71,239.82c0,27.55-22.33,49.88-49.88,49.88-6.52,0-12.75-1.25-18.46-3.53,0,0,4.4-22.19,22.81-38.46s44.23-19.26,44.23-19.26c.85,3.65,1.3,7.46,1.3,11.37Z"/>
    <path class="cls-2" d="m491.44,278.52h0s0,0,0,0c10.64-10.64,12.26-26.9,4.86-39.25-1.33-2.22-11.2,1.92-12.72,6.61-3.59,11.12-.97,23.81,7.86,32.64Z"/>
    <path class="cls-4" d="m458.12,289.69c1.38-13.57,5.66-27.17,14.38-37.92,9.04-10.51,21.81-17.38,35.08-20.86,8.68-2.41,17.53-3.3,26.15-5.77,0,0,.05.12.05.12-3.96,2.09-8.27,3.52-12.52,4.89-16.58,4.92-33.34,11.58-44.71,25.02-8.21,10.23-12.82,22.56-18.44,34.53h0Z"/>
    <path class="cls-4" d="m451.07,269.38c-3.48,10.01-14.47,16.47-24.96,15.6-12.8-1.02-20.04-13.1-20.91-24.9-.97-11.54,5.84-22.56,15.37-28.61,0,0,.36.51.36.51-7.19,6.26-12.72,15.23-12.51,24.96.28,8.91,4.25,19.11,12.9,22.8,10.63,4.27,23.19-1.19,29.2-10.64,0,0,.55.28.55.28h0Z"/>
    <circle class="cls-7" cx="484.35" cy="265.69" r="8.25"/>
    <circle class="cls-3" cx="487.8" cy="273.95" r="3.44"/>
  </g>
</svg>