<?xml version="1.0" encoding="UTF-8"?>
<svg xmlns="http://www.w3.org/2000/svg" xmlns:xlink="http://www.w3.org/1999/xlink" viewBox="0 0 703.17 489.83">
  <defs>
    <style>
      .cls-1 {
        fill: url(#linear-gradient-12);
      }

      .cls-1, .cls-2, .cls-3, .cls-4, .cls-5, .cls-6, .cls-7, .cls-8, .cls-9, .cls-10, .cls-11, .cls-12, .cls-13, .cls-14, .cls-15, .cls-16, .cls-17, .cls-18, .cls-19, .cls-20, .cls-21 {
        stroke-width: 0px;
      }

      .cls-2 {
        fill: url(#linear-gradient-17);
      }

      .cls-3 {
        fill: url(#linear-gradient);
      }

      .cls-4 {
        fill: url(#linear-gradient-6);
      }

      .cls-5 {
        fill: #072320;
      }

      .cls-6 {
        fill: url(#linear-gradient-15);
      }

      .cls-7 {
        fill: url(#linear-gradient-11);
      }

      .cls-8 {
        fill: url(#linear-gradient-5);
      }

      .cls-9 {
        fill: url(#linear-gradient-13);
      }

      .cls-10 {
        fill: url(#linear-gradient-16);
      }

      .cls-11 {
        fill: url(#linear-gradient-14);
      }

      .cls-12 {
        fill: url(#linear-gradient-2);
      }

      .cls-13 {
        fill: #0a3a35;
      }

      .cls-14 {
        fill: url(#linear-gradient-7);
      }

      .cls-15 {
        fill: url(#linear-gradient-3);
      }

      .cls-16 {
        fill: url(#linear-gradient-9);
      }

      .cls-17 {
        fill: url(#linear-gradient-8);
      }

      .cls-18 {
        fill: url(#linear-gradient-18);
      }

      .cls-22 {
        fill: none;
        stroke: #002a26;
        stroke-miterlimit: 10;
      }

      .cls-19 {
        fill: #77a145;
      }

      .cls-20 {
        fill: url(#linear-gradient-10);
      }

      .cls-21 {
        fill: url(#linear-gradient-4);
      }
    </style>
    <linearGradient id="linear-gradient" x1="142.12" y1="443.51" x2="151.32" y2="384.94" gradientUnits="userSpaceOnUse">
      <stop offset=".17" stop-color="#486c84"/>
      <stop offset=".56" stop-color="#231f20" stop-opacity="0"/>
    </linearGradient>
    <linearGradient id="linear-gradient-2" x1="164.33" y1="490.48" x2="199.55" y2="266.29" xlink:href="#linear-gradient"/>
    <linearGradient id="linear-gradient-3" x1="193.02" y1="388.25" x2="200.56" y2="340.29" xlink:href="#linear-gradient"/>
    <linearGradient id="linear-gradient-4" x1="198.93" y1="394.6" x2="208.2" y2="335.57" xlink:href="#linear-gradient"/>
    <linearGradient id="linear-gradient-5" x1="202.08" y1="387.46" x2="207.32" y2="354.12" xlink:href="#linear-gradient"/>
    <linearGradient id="linear-gradient-6" x1="170.66" y1="476.32" x2="212.12" y2="212.43" xlink:href="#linear-gradient"/>
    <linearGradient id="linear-gradient-7" x1="190.13" y1="366.96" x2="199.02" y2="310.36" xlink:href="#linear-gradient"/>
    <linearGradient id="linear-gradient-8" x1="197.74" y1="373.06" x2="209.16" y2="300.38" xlink:href="#linear-gradient"/>
    <linearGradient id="linear-gradient-9" x1="207.84" y1="356.53" x2="211.9" y2="330.66" xlink:href="#linear-gradient"/>
    <linearGradient id="linear-gradient-10" x1="371.85" y1="443.28" x2="381.05" y2="384.71" gradientTransform="translate(976.72) rotate(-180) scale(1 -1)" xlink:href="#linear-gradient"/>
    <linearGradient id="linear-gradient-11" x1="394.06" y1="490.25" x2="429.28" y2="266.05" gradientTransform="translate(976.72) rotate(-180) scale(1 -1)" xlink:href="#linear-gradient"/>
    <linearGradient id="linear-gradient-12" x1="422.75" y1="388.01" x2="430.28" y2="340.05" gradientTransform="translate(976.72) rotate(-180) scale(1 -1)" xlink:href="#linear-gradient"/>
    <linearGradient id="linear-gradient-13" x1="428.66" y1="394.37" x2="437.93" y2="335.34" gradientTransform="translate(976.72) rotate(-180) scale(1 -1)" xlink:href="#linear-gradient"/>
    <linearGradient id="linear-gradient-14" x1="431.81" y1="387.22" x2="437.05" y2="353.89" gradientTransform="translate(976.72) rotate(-180) scale(1 -1)" xlink:href="#linear-gradient"/>
    <linearGradient id="linear-gradient-15" x1="400.38" y1="476.08" x2="441.84" y2="212.2" gradientTransform="translate(976.72) rotate(-180) scale(1 -1)" xlink:href="#linear-gradient"/>
    <linearGradient id="linear-gradient-16" x1="419.86" y1="366.72" x2="428.75" y2="310.13" gradientTransform="translate(976.72) rotate(-180) scale(1 -1)" xlink:href="#linear-gradient"/>
    <linearGradient id="linear-gradient-17" x1="427.47" y1="372.83" x2="438.88" y2="300.15" gradientTransform="translate(976.72) rotate(-180) scale(1 -1)" xlink:href="#linear-gradient"/>
    <linearGradient id="linear-gradient-18" x1="437.57" y1="356.3" x2="441.63" y2="330.42" gradientTransform="translate(976.72) rotate(-180) scale(1 -1)" xlink:href="#linear-gradient"/>
  </defs>
  <g id="Layer_8" data-name="Layer 8">
    <g>
      <path class="cls-19" d="m136.21,337.72c4.12,3.73,12.09,10.12,18.07,13.74,17.74,10.72,35.19,13.5,46.22,14.22.2-.09,2.77-1.17,5.04.3,1.93,1.25,2.82,3.8,2.07,6.22.64,2.22,1.8,5.63,3.85,9.48,5.45,10.2,11.52,12.79,14.81,21.93,1.56,4.34,2.86,7.05,1.78,10.07-2.17,6.06-11.52,8.58-18.37,8-6.44-.54-10.83-3.83-14.81-6.81-3.54-2.65-9.33-7.78-13.93-16.59-4.79.8-9.09.99-12.74.89-7.38-.2-16.27-.43-24-6.22-3.45-2.58-6.39-5.42-8-8.1v-47.12Z"/>
      <path class="cls-19" d="m136.21,310.95c2.17.4,7.31.71,9.48,1.1,1.09,1.46,2.77,3.58,5.04,5.93,7.83,8.13,15.56,11.72,26.96,16.89,14.46,6.55,17.79,5.64,19.56,4.74,1.78-.91,3.47-2.56,6.22-2.37,2.87.19,5.44,2.29,6.81,4.44.87,1.36,1.22,2.68,1.37,3.48.07.37.1.64.11.66.17,1.3,8.36,9.77,31.11,31.11.52.58,3.68,4.23,2.67,8.3-.55,2.21-2.09,3.55-3.85,5.04-1.98,1.68-4.9,3.54-9.19,4.74-2.1.59-9.86,2.65-18.07-.3-7.31-2.62-7.97-6.69-16.3-13.63-6.46-5.39-11.95-7.84-22.22-12.44-13.65-6.12-20.53-2.64-29.04-9.48-3.98-3.2-9-6.71-10.33-9.07,0-13.04-.33-26.1-.33-39.14Z"/>
      <path class="cls-19" d="m136.21,304.68c4.58,5.18,16.22,15.31,29.63,21,9.06,3.84,17.27,5.17,23.11,5.63,1.13-.73,3.06-1.71,5.33-1.48,2.87.29,4.78,2.36,5.63,3.26,4.67,4.93,8.86,6.34,13.93,10.86,0,0,10.21,7.92,10.96,7.16.41-.41,4.15,2.42,4.15,2.42h0s2.78,2.63,3.85,5.93c.37,1.15.9,2.77.3,4.44-.26.72-.98,2.14-5.33,4.15-.2.09-4.81,2.2-8.3,2.67-6.22.83-16.07-2.6-25.19-10.67-13.77-8.81-30.25-16.6-49.48-21.04-1.89-.44-6.73-.94-8.59-1.3,0,0,0-22.57,0-33.04Z"/>
      <path class="cls-19" d="m136.21,391.16c2.03,2.92,5.05,6.41,9.48,9.19,4.94,3.1,7.79,2.9,10.07,6.22,2.17,3.16,2.95,8.2.59,12.15-2.25,3.78-6.3,4.77-7.41,5.04-6.61,1.62-12-2.66-12.74-3.26,0-9.78,0-19.56,0-29.33Z"/>
      <path class="cls-22" d="m136.55,337.37c4.12,3.73,11.75,9.91,17.74,13.52,17.74,10.72,35.19,13.5,46.22,14.22.2-.09,2.77-1.17,5.04.3,1.93,1.25,2.82,3.8,2.07,6.22.64,2.22,1.8,5.63,3.85,9.48,3.92,7.35,8.17,10.75,11.47,15.49,1.28,1.84,2.42,3.88,3.34,6.44"/>
      <path class="cls-22" d="m138.75,310.59c2.17.4,4.35.79,6.52,1.19,1.09,1.46,2.77,3.58,5.04,5.93,7.83,8.13,15.56,11.72,26.96,16.89,14.46,6.55,17.79,5.64,19.56,4.74,1.78-.91,3.47-2.56,6.22-2.37,2.87.19,5.44,2.29,6.81,4.44.87,1.36,1.22,2.68,1.37,3.48.07.37.1.64.11.66.15,1.16,6.67,8.01,24.22,24.62,2.13,2.02,4.43,4.18,6.89,6.49.52.58,3.68,4.23,2.67,8.3"/>
      <path class="cls-13" d="m216.44,389.17c-1.57,1.15-3.54,3.03-4.67,5.84-1.37,3.41-.81,6.45,0,10.81.68,3.69,1.05,5.69,2.67,7.7,1.62,2.02,2.99,2.2,5.93,4.44,0,0,3.36,2.63,5.63,5.63,1.15,1.52,4.24,6.23,3.41,15.11-.03.16-.47,2.57.89,3.56.76.55,1.77.43,2.22.3,3.05-.91,3.3-9.26,3.41-13.78.16-6.9.29-12.37-1.93-19.56-1.76-5.71-3.53-11.47-9.04-15.85-3.12-2.48-6.32-3.63-8.51-4.21Z"/>
      <path class="cls-13" d="m223.98,363.03c-1.08,1.61-2.31,4.05-2.42,7.08-.14,3.67,1.42,6.34,3.66,10.18,1.89,3.24,2.92,4.99,5.12,6.35,2.21,1.36,3.56,1.06,7.08,2.18,0,0,4.05,1.33,7.2,3.39,1.6,1.05,6.1,4.43,8.32,13.07.02.16.42,2.58,2.04,3.05.9.26,1.81-.2,2.19-.47,2.56-1.88-.03-9.83-1.46-14.12-2.18-6.55-3.91-11.73-8.43-17.75-3.58-4.78-7.2-9.6-13.87-11.86-3.77-1.28-7.18-1.28-9.44-1.08Z"/>
      <path class="cls-13" d="m145.61,399.5c-.73,1.02-1.57,2.58-1.71,4.54-.16,2.38.8,4.14,2.17,6.67,1.16,2.14,1.79,3.29,3.19,4.21,1.4.92,2.29.76,4.54,1.55,0,0,2.6.94,4.6,2.34,1.01.71,3.87,2.99,5.13,8.63.01.11.22,1.68,1.26,2.01.58.19,1.18-.09,1.43-.26,1.7-1.17.18-6.37-.66-9.18-1.29-4.28-2.3-7.68-5.11-11.67-2.23-3.17-4.48-6.36-8.75-7.96-2.42-.9-4.63-.97-6.09-.89Z"/>
      <path class="cls-13" d="m228.1,354.75c-.43,1.36-.8,3.33-.25,5.5.66,2.62,2.31,4.19,4.68,6.43,2,1.9,3.09,2.93,4.92,3.43,1.84.5,2.73.02,5.45.08,0,0,3.14.11,5.78.92,1.34.41,5.22,1.87,8.56,7.52.05.11.83,1.73,2.07,1.73.69,0,1.24-.51,1.45-.78,1.42-1.86-2.04-6.94-3.93-9.67-2.89-4.17-5.17-7.48-9.6-10.8-3.51-2.64-7.06-5.3-12.23-5.52-2.92-.13-5.33.57-6.88,1.17Z"/>
    </g>
    <g>
      <path class="cls-19" d="m610.85,337.37c-4.12,3.73-12.09,10.12-18.07,13.74-17.74,10.72-35.19,13.5-46.22,14.22-.2-.09-2.77-1.17-5.04.3-1.93,1.25-2.82,3.8-2.07,6.22-.64,2.22-1.8,5.63-3.85,9.48-5.45,10.2-11.52,12.79-14.81,21.93-1.56,4.34-2.86,7.05-1.78,10.07,2.17,6.06,11.52,8.58,18.37,8,6.44-.54,10.83-3.83,14.81-6.81,3.54-2.65,9.33-7.78,13.93-16.59,4.79.8,9.09.99,12.74.89,7.38-.2,16.27-.43,24-6.22,3.45-2.58,6.39-5.42,8-8.1v-47.12Z"/>
      <path class="cls-19" d="m610.85,310.6c-2.17.4-7.31.71-9.48,1.1-1.09,1.46-2.77,3.58-5.04,5.93-7.83,8.13-15.56,11.72-26.96,16.89-14.46,6.55-17.79,5.64-19.56,4.74-1.78-.91-3.47-2.56-6.22-2.37-2.87.19-5.44,2.29-6.81,4.44-.87,1.36-1.22,2.68-1.37,3.48-.07.37-.1.64-.11.66-.17,1.3-8.36,9.77-31.11,31.11-.52.58-3.68,4.23-2.67,8.3.55,2.21,2.09,3.55,3.85,5.04,1.98,1.68,4.9,3.54,9.19,4.74,2.1.59,9.86,2.65,18.07-.3,7.31-2.62,7.97-6.69,16.3-13.63,6.46-5.39,11.95-7.84,22.22-12.44,13.65-6.12,20.53-2.64,29.04-9.48,3.98-3.2,9-6.71,10.33-9.07,0-13.04.33-26.1.33-39.14Z"/>
      <path class="cls-19" d="m610.85,304.33c-4.58,5.18-16.22,15.31-29.63,21-9.06,3.84-17.27,5.17-23.11,5.63-1.13-.73-3.06-1.71-5.33-1.48-2.87.29-4.78,2.36-5.63,3.26-4.67,4.93-8.86,6.34-13.93,10.86,0,0-10.21,7.92-10.96,7.16-.41-.41-4.15,2.42-4.15,2.42h0s-2.78,2.63-3.85,5.93c-.37,1.15-.9,2.77-.3,4.44.26.72.98,2.14,5.33,4.15.2.09,4.81,2.2,8.3,2.67,6.22.83,16.07-2.6,25.19-10.67,13.77-8.81,30.25-16.6,49.48-21.04,1.89-.44,6.73-.94,8.59-1.3,0,0,0-22.57,0-33.04Z"/>
      <path class="cls-19" d="m610.85,390.81c-2.03,2.92-5.05,6.41-9.48,9.19-4.94,3.1-7.79,2.9-10.07,6.22-2.17,3.16-2.95,8.2-.59,12.15,2.25,3.78,6.3,4.77,7.41,5.04,6.61,1.62,12-2.66,12.74-3.26v-29.33Z"/>
      <path class="cls-22" d="m610.52,337.02c-4.12,3.73-11.75,9.91-17.74,13.52-17.74,10.72-35.19,13.5-46.22,14.22-.2-.09-2.77-1.17-5.04.3-1.93,1.25-2.82,3.8-2.07,6.22-.64,2.22-1.8,5.63-3.85,9.48-3.92,7.35-8.17,10.75-11.47,15.49-1.28,1.84-2.42,3.88-3.34,6.44"/>
      <path class="cls-22" d="m608.32,310.25c-2.17.4-4.35.79-6.52,1.19-1.09,1.46-2.77,3.58-5.04,5.93-7.83,8.13-15.56,11.72-26.96,16.89-14.46,6.55-17.79,5.64-19.56,4.74-1.78-.91-3.47-2.56-6.22-2.37-2.87.19-5.44,2.29-6.81,4.44-.87,1.36-1.22,2.68-1.37,3.48-.07.37-.1.64-.11.66-.15,1.16-6.67,8.01-24.22,24.62-2.13,2.02-4.43,4.18-6.89,6.49-.52.58-3.68,4.23-2.67,8.3"/>
      <path class="cls-13" d="m530.62,388.82c1.57,1.15,3.54,3.03,4.67,5.84,1.37,3.41.81,6.45,0,10.81-.68,3.69-1.05,5.69-2.67,7.7-1.62,2.02-2.99,2.2-5.93,4.44,0,0-3.36,2.63-5.63,5.63-1.15,1.52-4.24,6.23-3.41,15.11.03.16.47,2.57-.89,3.56-.76.55-1.77.43-2.22.3-3.05-.91-3.3-9.26-3.41-13.78-.16-6.9-.29-12.37,1.93-19.56,1.76-5.71,3.53-11.47,9.04-15.85,3.12-2.48,6.32-3.63,8.51-4.21Z"/>
      <path class="cls-13" d="m523.09,362.68c1.08,1.61,2.31,4.05,2.42,7.08.14,3.67-1.42,6.34-3.66,10.18-1.89,3.24-2.92,4.99-5.12,6.35-2.21,1.36-3.56,1.06-7.08,2.18,0,0-4.05,1.33-7.2,3.39-1.6,1.05-6.1,4.43-8.32,13.07-.02.16-.42,2.58-2.04,3.05-.9.26-1.81-.2-2.19-.47-2.56-1.88.03-9.83,1.46-14.12,2.18-6.55,3.91-11.73,8.43-17.75,3.58-4.78,7.2-9.6,13.87-11.86,3.77-1.28,7.18-1.28,9.44-1.08Z"/>
      <path class="cls-13" d="m601.46,399.15c.73,1.02,1.57,2.58,1.71,4.54.16,2.38-.8,4.14-2.17,6.67-1.16,2.14-1.79,3.29-3.19,4.21-1.4.92-2.29.76-4.54,1.55,0,0-2.6.94-4.6,2.34-1.01.71-3.87,2.99-5.13,8.63-.01.11-.22,1.68-1.26,2.01-.58.19-1.18-.09-1.43-.26-1.7-1.17-.18-6.37.66-9.18,1.29-4.28,2.3-7.68,5.11-11.67,2.23-3.17,4.48-6.36,8.75-7.96,2.42-.9,4.63-.97,6.09-.89Z"/>
      <path class="cls-13" d="m518.97,354.41c.43,1.36.8,3.33.25,5.5-.66,2.62-2.31,4.19-4.68,6.43-2,1.9-3.09,2.93-4.92,3.43-1.84.5-2.73.02-5.45.08,0,0-3.14.11-5.78.92-1.34.41-5.22,1.87-8.56,7.52-.05.11-.83,1.73-2.07,1.73-.69,0-1.24-.51-1.45-.78-1.42-1.86,2.04-6.94,3.93-9.67,2.89-4.17,5.17-7.48,9.6-10.8,3.51-2.64,7.06-5.3,12.23-5.52,2.92-.13,5.33.57,6.88,1.17Z"/>
    </g>
  </g>
  <g id="Layer_10" data-name="Layer 10">
    <path class="cls-3" d="m136.21,420.5c.77.62,1.87,1.39,3.3,2.07.9.43,2.65,1.24,5.03,1.47,1.13.11,4.17.41,7.08-1.19,2.55-1.4,4.73-4.13,4.73-4.13h0s.15-.29.46-.87c-.54-.3-1.17-.61-1.87-.91-.49-.21-1.13-.48-1.98-.74-1.06-.32-1.3-.27-2.14-.56-.7-.25-1.24-.53-1.57-.72-.56.22-1.31.47-2.22.65-.26.05-1.96.39-3.85.25-3.38-.26-6.04-1.96-6.98-2.62v7.3Z"/>
    <path class="cls-12" d="m136.21,384.84c.65.97,1.56,2.19,2.75,3.5.88.97,2.83,2.99,5.78,4.98,1.63,1.1,4.83,3.03,9.28,4.29,2.33.66,4,.85,6.85,1.18,2.44.28,7.61.74,14.28.19,2.44-.2,4.44-.49,5.81-.71.13.25.32.6.55,1.03,2.4,4.36,4.91,7.4,5.98,8.65.72.83,4.18,4.79,9.8,8.69,2.39,1.66,4.28,2.95,7.2,3.93,1.22.41,3.52,1.07,6.5,1.19,1.05.04,3.75.08,7.09-.78,1.7-.44,3.08-.99,4.08-1.45-.39-.37-1-.92-1.8-1.54-1.08-.83-1.4-.93-2.86-1.93-1.55-1.07-2.35-1.63-3.07-2.52-.65-.8-1.04-1.58-1.26-2.09-1.19-.39-2.93-1.01-5-1.87-5.1-2.12-10.04-4.18-14.37-8.37-1.73-1.67-4.2-4.5-6.22-8.89-.31-.62-.95-1.66-2.15-2.22-.68-.32-1.28-.36-1.56-.37-4.03-.21-6.05-.32-8.81.37-5.17,1.28-15.21-.23-21.48-2.67-3.2-1.24-10.88-4.85-17.37-15.11v12.53Z"/>
    <path class="cls-15" d="m198.93,365c-.24.05-.57.14-.95.25-.19.06-1.12.35-2.03.84-1.07.57-2.05,1.09-2.67,2.07-.97,1.54-.72,3.72-.22,3.85.37.1.65-.99,1.85-2.52,2.26-2.87,5.17-3.96,4.96-4.43-.05-.1-.24-.18-.94-.07Z"/>
    <path class="cls-21" d="m204.75,365.57c-.76.28-1.92.8-3.09,1.78-.54.45-1.71,1.44-2.52,3.11-.93,1.91-1.04,3.98-.74,4.07.34.11.58-2.65,2.81-4.07.21-.13,1.47-.63,4-1.63,1.33-.52,1.86-.73,1.93-1.15.15-.88-1.93-1.9-2.4-2.12Z"/>
    <path class="cls-8" d="m207.21,371.35c-.27.46-.71,1.09-1.41,1.7-.56.49-1.07.78-1.56,1.04-2.43,1.27-4.03,1.49-4,1.7.04.26,2.54.42,5.04-.59,1.01-.41,2.65-1.07,2.74-2.25.05-.69-.47-1.28-.81-1.61Z"/>
    <path class="cls-4" d="m136.46,337.05c.59.61,1.44,1.47,2.52,2.45,1.49,1.36,2.6,2.23,4.73,3.88,2.66,2.06,4.79,3.59,6.01,4.45,1.71,1.21,3.04,2.09,3.32,2.28,3.43,2.28,9.57,5.6,16.9,8.41.98.37,8.18,3.11,16.77,4.8,4.61.91,8.77,1.35,9.61,1.44,1.46.15,2.73.25,3.71.32.16.01.3-.01.45-.06.37-.12.85-.24,1.42-.3.66-.07,1.75-.19,2.91.3.2.09,1.97.86,2.59,2.58.22.6.08.73.37,3.42,0,0,.05.5.15,1.3.34,2.85,2.51,6.71,2.51,6.71,2.38,4.25,4.91,7.96,6.11,9.68.05.08.09.15.12.23.27.67.74,1.5,1.59,1.85.56.23.93.11,1.63.26,1.16.25,1.88.97,2.37,1.41.84.75,2.31,1.84,5.09,3.35.23.13.5.17.76.14.55-.08,1.22-.19,1.99-.34,1.23-.25,3.33-.69,5.78-1.77,1.03-.45,2.32-1.1,3.73-2.03.83-.54.7-1.8-.22-2.15,0,0-.02,0-.03,0-1.86-.72-2.32-.88-2.89-1.04-1.14-.31-1.39-.22-2.44-.44-.85-.18-2.66-.55-4.3-1.7-.63-.44-1.72-1.34-2.63-2.97-.16-.29-.42-.51-.74-.6-.74-.2-1.74-.52-2.86-1.02-4.2-1.86-6.87-4.74-8.96-7.04-.55-.61-1.45-1.74-3.26-4-2.52-3.16-3.27-4.25-5.11-6.44-.73-.87-1.75-2.05-3.02-3.42-.32-.35-.81-.48-1.26-.33-1.04.34-2.4.71-4.02.94-4.66.65-8.36-.32-10.44-.89-11.59-3.19-22.56-7.83-25.04-8.89-5.58-2.38-8.42-3.6-11.26-5.11-6.4-3.41-11.32-6.96-14.68-9.63Z"/>
    <path class="cls-14" d="m195.14,339.88c-1.9.33-3.38,1.7-3.71,3.4-.39,2.04,1.08,3.57,1.63,4.15.13.14,1.28,1.32,1.78,1.04.51-.29.1-1.97,0-2.37-.36-1.46-.84-1.62-.74-2.37.1-.72.59-.8,1.63-2.22.36-.49,1.36-1.85,1.09-2.16-.11-.12-.47-.13-1.68.54Z"/>
    <path class="cls-17" d="m200.11,337.96c-1.5,1.34-1.76,2.38-1.71,3.1.08,1.17,1,1.41,2.22,3.56,1.02,1.79.73,2.25,1.63,3.26,1.19,1.34,3.07,2.1,3.56,1.63.27-.26,0-.81-.89-3.26-1.25-3.43-1.34-4-1.04-4.44.66-.97,2.42-.23,3.11-1.33.4-.65.22-1.56-.13-2.11-.69-1.08-2.23-1.1-3.38-1.11-.71,0-1.93.08-3.36.72Z"/>
    <path class="cls-16" d="m210.25,344.46c-.27.7-.75,1.59-1.63,1.93-.92.36-1.83-.06-1.93.2-.09.24.59.91,1.48,1.19,1.16.36,2.46.35,3.36-.3.23-.17.52-.38.55-.69.05-.5-.57-.66-.76-1.37-.19-.72.26-1.26.04-1.43-.12-.09-.4-.05-1.11.48Z"/>
    <path class="cls-5" d="m151.06,415.7c.92.2,2.15.52,3.56,1.09,1.23.5,2.44.99,3.78,2.02.47.36,2.13,1.68,3.41,3.95.66,1.17,1.12,1.98,1.33,3.19.09.51.14,1.16.51,2.03.28.67.55,1.27,1.15,1.48.49.17,1.06.01,1.43-.26.33-.24.74-.76.76-2.51.02-1.16-.14-2.5-.8-4.48-.57-1.72-.9-2.71-1.71-3.88-1.05-1.5-2.22-2.32-3.26-3.04-.86-.59-3.04-2.06-6.15-2.59-2.2-.38-2.62.09-4.81-.37-1.84-.39-3.26-1.08-4.18-1.61.24.5.56,1.12,1.01,1.79.61.92,1.17,1.75,2.18,2.42.65.43,1.29.66,1.8.79Z"/>
    <path class="cls-5" d="m214.65,413.79c.5.46,1.29,1.15,2.32,1.92,1.5,1.13,2.38,1.57,3.39,2.26,1.94,1.33,3.15,2.72,4,3.71,1.08,1.24,2.86,3.34,4.02,6.56,1.03,2.85,1.1,5.27,1.15,7.11.05,1.8-.08,3.32-.23,4.44-.03.24-.09.95.33,1.68.11.2.47.79,1.18,1.07,1.14.46,2.22-.24,2.37-.34.89-.59,1.19-1.57,1.33-2.04,1.05-3.6,1.23-7.17,1.23-7.18.23-4.32.24-7.2.24-7.94,0-1.63-.02-2.98-.04-3.93-1.54-2.22-3.09-3.75-4.22-4.73-1.28-1.11-5.93-5.17-12.22-6.59-1.23-.28-3.48-.68-5.78-2.37-.94-.69-1.6-1.4-2.02-1.88.05,1.42.32,3.59,1.46,5.89.46.93.98,1.71,1.47,2.35Z"/>
    <path class="cls-5" d="m225.58,381.94c1.71,2.4,1.7,2.16,2.77,3.3,1.5,1.59,3.3,2.25,4.17,2.55,1.54.54,1.76.25,4.03.84,1.9.49,3.28,1.1,4.05,1.44,1.25.55,3.26,1.44,5.23,3.03.93.75,5.64,4.55,6.2,9.24.22,1.84.58,2.65,1.29,4.25.29.65.58,1.19,1.19,1.51.84.44,1.95.27,2.66-.26.92-.7,1.05-1.94,1.08-2.94.12-4.04-1.29-7.74-2.26-10.35-.64-1.74-1.58-4.34-2.66-7.6-.95-.63-2.29-1.46-3.96-2.34-2.15-1.13-5.88-3.09-10.74-4.07-4.85-.98-6.42-.09-10.22-1.7-1.7-.72-3.06-1.61-4.22-2.74-1.18-1.14-1.92-2.31-2.37-3.14.3,2.84,1.21,4.66,2,5.81.63.92.68,1.65,1.78,3.19Z"/>
    <path class="cls-5" d="m229.19,363.14c.83.11,1.9.29,3.13.64,1.03.29,2.83.89,4.86,2.05,2.44,1.4,4.21,3.04,5.4,4.37.16,0,.38,0,.65.02.2,0,1.52.08,2.9.32,1.16.21,2.48.44,3.99,1.14,1.88.87,3.08,2,3.79,2.68,1.44,1.38,2.29,2.2,2.83,3.5.12.29.4,1.02,1.08,1.69.36.36.82.8,1.46.81.63,0,1.18-.41,1.45-.78.42-.58.54-1.56-.48-4.01-.62-1.48-1.71-3.64-3.69-6.02-.79-.57-1.97-1.34-3.5-2.05-2.15-1-4-1.37-7.63-2.07-1.84-.36-4.01-.78-6.81-1.11-.5-.06-1.84-.21-3.63-.52,0,0-1.41-.24-3.68-.86-1.44-.39-2.31-.7-2.89-1.51-.2-.29-.39-.66-.43-.64-.05.03.23.78.63,1.48.21.38.42.67.57.88Z"/>
    <path class="cls-20" d="m610.78,420.26c-.77.62-1.87,1.39-3.3,2.07-.9.43-2.65,1.24-5.03,1.47-1.13.11-4.17.41-7.08-1.19-2.55-1.4-4.73-4.13-4.73-4.13h0s-.15-.29-.46-.87c.54-.3,1.17-.61,1.87-.91.49-.21,1.13-.48,1.98-.74,1.06-.32,1.3-.27,2.14-.56.7-.25,1.24-.53,1.57-.72.56.22,1.31.47,2.22.65.26.05,1.96.39,3.85.25,3.38-.26,6.04-1.96,6.98-2.62v7.3Z"/>
    <path class="cls-7" d="m610.78,384.61c-.65.97-1.56,2.19-2.75,3.5-.88.97-2.83,2.99-5.78,4.98-1.63,1.1-4.83,3.03-9.28,4.29-2.33.66-4,.85-6.85,1.18-2.44.28-7.61.74-14.28.19-2.44-.2-4.44-.49-5.81-.71-.13.25-.32.6-.55,1.03-2.4,4.36-4.91,7.4-5.98,8.65-.72.83-4.18,4.79-9.8,8.69-2.39,1.66-4.28,2.95-7.2,3.93-1.22.41-3.52,1.07-6.5,1.19-1.05.04-3.75.08-7.09-.78-1.7-.44-3.08-.99-4.08-1.45.39-.37,1-.92,1.8-1.54,1.08-.83,1.4-.93,2.86-1.93,1.55-1.07,2.35-1.63,3.07-2.52.65-.8,1.04-1.58,1.26-2.09,1.19-.39,2.93-1.01,5-1.87,5.1-2.12,10.04-4.18,14.37-8.37,1.73-1.67,4.2-4.5,6.22-8.89.31-.62.95-1.66,2.15-2.22.68-.32,1.28-.36,1.56-.37,4.03-.21,6.05-.32,8.81.37,5.17,1.28,15.21-.23,21.48-2.67,3.2-1.24,10.88-4.85,17.37-15.11,0,4.18,0,8.35,0,12.53Z"/>
    <path class="cls-1" d="m548.06,364.76c.24.05.57.14.95.25.19.06,1.12.35,2.03.84,1.07.57,2.05,1.09,2.67,2.07.97,1.54.72,3.72.22,3.85-.37.1-.65-.99-1.85-2.52-2.26-2.87-5.17-3.96-4.96-4.43.05-.1.24-.18.94-.07Z"/>
    <path class="cls-9" d="m542.24,365.33c.76.28,1.92.8,3.09,1.78.54.45,1.71,1.44,2.52,3.11.93,1.91,1.04,3.98.74,4.07-.34.11-.58-2.65-2.81-4.07-.21-.13-1.47-.63-4-1.63-1.33-.52-1.86-.73-1.93-1.15-.15-.88,1.93-1.9,2.4-2.12Z"/>
    <path class="cls-11" d="m539.78,371.11c.27.46.71,1.09,1.41,1.7.56.49,1.07.78,1.56,1.04,2.43,1.27,4.03,1.49,4,1.7-.04.26-2.54.42-5.04-.59-1.01-.41-2.65-1.07-2.74-2.25-.05-.69.47-1.28.81-1.61Z"/>
    <path class="cls-6" d="m610.53,336.82c-.59.61-1.44,1.47-2.52,2.45-1.49,1.36-2.6,2.23-4.73,3.88-2.66,2.06-4.79,3.59-6.01,4.45-1.71,1.21-3.04,2.09-3.32,2.28-3.43,2.28-9.57,5.6-16.9,8.41-.98.37-8.18,3.11-16.77,4.8-4.61.91-8.77,1.35-9.61,1.44-1.46.15-2.73.25-3.71.32-.16.01-.3-.01-.45-.06-.37-.12-.85-.24-1.42-.3-.66-.07-1.75-.19-2.91.3-.2.09-1.97.86-2.59,2.58-.22.6-.08.73-.37,3.42,0,0-.05.5-.15,1.3-.34,2.85-2.51,6.71-2.51,6.71-2.38,4.25-4.91,7.96-6.11,9.68-.05.08-.09.15-.12.23-.27.67-.74,1.5-1.59,1.85-.56.23-.93.11-1.63.26-1.16.25-1.88.97-2.37,1.41-.84.75-2.31,1.84-5.09,3.35-.23.13-.5.17-.76.14-.55-.08-1.22-.19-1.99-.34-1.23-.25-3.33-.69-5.78-1.77-1.03-.45-2.32-1.1-3.73-2.03-.83-.54-.7-1.8.22-2.15,0,0,.02,0,.03,0,1.86-.72,2.32-.88,2.89-1.04,1.14-.31,1.39-.22,2.44-.44.85-.18,2.66-.55,4.3-1.7.63-.44,1.72-1.34,2.63-2.97.16-.29.42-.51.74-.6.74-.2,1.74-.52,2.86-1.02,4.2-1.86,6.87-4.74,8.96-7.04.55-.61,1.45-1.74,3.26-4,2.52-3.16,3.27-4.25,5.11-6.44.73-.87,1.75-2.05,3.02-3.42.32-.35.81-.48,1.26-.33,1.04.34,2.4.71,4.02.94,4.66.65,8.36-.32,10.44-.89,11.59-3.19,22.56-7.83,25.04-8.89,5.58-2.38,8.42-3.6,11.26-5.11,6.4-3.41,11.32-6.96,14.68-9.63Z"/>
    <path class="cls-10" d="m551.85,339.65c1.9.33,3.38,1.7,3.71,3.4.39,2.04-1.08,3.57-1.63,4.15-.13.14-1.28,1.32-1.78,1.04-.51-.29-.1-1.97,0-2.37.36-1.46.84-1.62.74-2.37-.1-.72-.59-.8-1.63-2.22-.36-.49-1.36-1.85-1.09-2.16.11-.12.47-.13,1.68.54Z"/>
    <path class="cls-2" d="m546.88,337.72c1.5,1.34,1.76,2.38,1.71,3.1-.08,1.17-1,1.41-2.22,3.56-1.02,1.79-.73,2.25-1.63,3.26-1.19,1.34-3.07,2.1-3.56,1.63-.27-.26,0-.81.89-3.26,1.25-3.43,1.34-4,1.04-4.44-.66-.97-2.42-.23-3.11-1.33-.4-.65-.22-1.56.13-2.11.69-1.08,2.23-1.1,3.38-1.11.71,0,1.93.08,3.36.72Z"/>
    <path class="cls-18" d="m536.74,344.23c.27.7.75,1.59,1.63,1.93.92.36,1.83-.06,1.93.2.09.24-.59.91-1.48,1.19-1.16.36-2.46.35-3.36-.3-.23-.17-.52-.38-.55-.69-.05-.5.57-.66.76-1.37.19-.72-.26-1.26-.04-1.43.12-.09.4-.05,1.11.48Z"/>
    <path class="cls-5" d="m595.93,415.47c-.92.2-2.15.52-3.56,1.09-1.23.5-2.44.99-3.78,2.02-.47.36-2.13,1.68-3.41,3.95-.66,1.17-1.12,1.98-1.33,3.19-.09.51-.14,1.16-.51,2.03-.28.67-.55,1.27-1.15,1.48-.49.17-1.06.01-1.43-.26-.33-.24-.74-.76-.76-2.51-.02-1.16.14-2.5.8-4.48.57-1.72.9-2.71,1.71-3.88,1.05-1.5,2.22-2.32,3.26-3.04.86-.59,3.04-2.06,6.15-2.59,2.2-.38,2.62.09,4.81-.37,1.84-.39,3.26-1.08,4.18-1.61-.24.5-.56,1.12-1.01,1.79-.61.92-1.17,1.75-2.18,2.42-.65.43-1.29.66-1.8.79Z"/>
    <path class="cls-5" d="m532.34,413.56c-.5.46-1.29,1.15-2.32,1.92-1.5,1.13-2.38,1.57-3.39,2.26-1.94,1.33-3.15,2.72-4,3.71-1.08,1.24-2.86,3.34-4.02,6.56-1.03,2.85-1.1,5.27-1.15,7.11-.05,1.8.08,3.32.23,4.44.03.24.09.95-.33,1.68-.11.2-.47.79-1.18,1.07-1.14.46-2.22-.24-2.37-.34-.89-.59-1.19-1.57-1.33-2.04-1.05-3.6-1.23-7.17-1.23-7.18-.23-4.32-.24-7.2-.24-7.94,0-1.63.02-2.98.04-3.93,1.54-2.22,3.09-3.75,4.22-4.73,1.28-1.11,5.93-5.17,12.22-6.59,1.23-.28,3.48-.68,5.78-2.37.94-.69,1.6-1.4,2.02-1.88-.05,1.42-.32,3.59-1.46,5.89-.46.93-.98,1.71-1.47,2.35Z"/>
    <path class="cls-5" d="m521.41,381.71c-1.71,2.4-1.7,2.16-2.77,3.3-1.5,1.59-3.3,2.25-4.17,2.55-1.54.54-1.76.25-4.03.84-1.9.49-3.28,1.1-4.05,1.44-1.25.55-3.26,1.44-5.23,3.03-.93.75-5.64,4.55-6.2,9.24-.22,1.84-.58,2.65-1.29,4.25-.29.65-.58,1.19-1.19,1.51-.84.44-1.95.27-2.66-.26-.92-.7-1.05-1.94-1.08-2.94-.12-4.04,1.29-7.74,2.26-10.35.64-1.74,1.58-4.34,2.66-7.6.95-.63,2.29-1.46,3.96-2.34,2.15-1.13,5.88-3.09,10.74-4.07,4.85-.98,6.42-.09,10.22-1.7,1.7-.72,3.06-1.61,4.22-2.74,1.18-1.14,1.92-2.31,2.37-3.14-.3,2.84-1.21,4.66-2,5.81-.63.92-.68,1.65-1.78,3.19Z"/>
    <path class="cls-5" d="m517.8,362.9c-.83.11-1.9.29-3.13.64-1.03.29-2.83.89-4.86,2.05-2.44,1.4-4.21,3.04-5.4,4.37-.16,0-.38,0-.65.02-.2,0-1.52.08-2.9.32-1.16.21-2.48.44-3.99,1.14-1.88.87-3.08,2-3.79,2.68-1.44,1.38-2.29,2.2-2.83,3.5-.12.29-.4,1.02-1.08,1.69-.36.36-.82.8-1.46.81-.63,0-1.18-.41-1.45-.78-.42-.58-.54-1.56.48-4.01.62-1.48,1.71-3.64,3.69-6.02.79-.57,1.97-1.34,3.5-2.05,2.15-1,4-1.37,7.63-2.07,1.84-.36,4.01-.78,6.81-1.11.5-.06,1.84-.21,3.63-.52,0,0,1.41-.24,3.68-.86,1.44-.39,2.31-.7,2.89-1.51.2-.29.39-.66.43-.64.05.03-.23.78-.63,1.48-.21.38-.42.67-.57.88Z"/>
  </g>
</svg>