<?xml version="1.0" encoding="UTF-8"?>
<svg id="Layer_8" data-name="Layer 8" xmlns="http://www.w3.org/2000/svg" xmlns:xlink="http://www.w3.org/1999/xlink" viewBox="0 0 720.26 576.85">
  <defs>
    <style>
      .cls-1 {
        fill: url(#linear-gradient-12);
      }

      .cls-1, .cls-2, .cls-3, .cls-4, .cls-5, .cls-6, .cls-7, .cls-8, .cls-9, .cls-10, .cls-11, .cls-12, .cls-13, .cls-14, .cls-15, .cls-16, .cls-17, .cls-18, .cls-19, .cls-20, .cls-21, .cls-22, .cls-23, .cls-24, .cls-25 {
        stroke-width: 0px;
      }

      .cls-2 {
        fill: url(#linear-gradient-17);
      }

      .cls-3 {
        fill: url(#linear-gradient-19);
      }

      .cls-4 {
        fill: url(#linear-gradient);
      }

      .cls-5 {
        fill: url(#linear-gradient-21);
      }

      .cls-6 {
        fill: url(#linear-gradient-6);
      }

      .cls-7 {
        fill: #072320;
      }

      .cls-8 {
        fill: url(#linear-gradient-15);
      }

      .cls-9 {
        fill: url(#linear-gradient-11);
      }

      .cls-10 {
        fill: url(#linear-gradient-5);
      }

      .cls-11 {
        fill: url(#linear-gradient-13);
      }

      .cls-12 {
        fill: url(#linear-gradient-16);
      }

      .cls-13 {
        fill: url(#linear-gradient-22);
      }

      .cls-14 {
        fill: url(#linear-gradient-20);
      }

      .cls-15 {
        fill: url(#linear-gradient-14);
      }

      .cls-16 {
        fill: url(#linear-gradient-2);
      }

      .cls-17 {
        fill: #0a3a35;
      }

      .cls-18 {
        fill: url(#linear-gradient-7);
      }

      .cls-19 {
        fill: url(#linear-gradient-3);
      }

      .cls-20 {
        fill: url(#linear-gradient-9);
      }

      .cls-26 {
        fill: none;
        stroke: #0a3a35;
        stroke-miterlimit: 10;
      }

      .cls-21 {
        fill: url(#linear-gradient-8);
      }

      .cls-22 {
        fill: url(#linear-gradient-18);
      }

      .cls-23 {
        fill: #77a145;
      }

      .cls-24 {
        fill: url(#linear-gradient-10);
      }

      .cls-25 {
        fill: url(#linear-gradient-4);
      }
    </style>
    <linearGradient id="linear-gradient" x1="342.41" y1="427.76" x2="365.59" y2="280.21" gradientTransform="translate(749.9) rotate(-180) scale(1 -1)" gradientUnits="userSpaceOnUse">
      <stop offset=".17" stop-color="#486c84"/>
      <stop offset=".56" stop-color="#231f20" stop-opacity="0"/>
    </linearGradient>
    <linearGradient id="linear-gradient-2" x1="327.45" y1="372.64" x2="347.51" y2="244.97" xlink:href="#linear-gradient"/>
    <linearGradient id="linear-gradient-3" x1="334.25" y1="297.71" x2="353.27" y2="176.61" xlink:href="#linear-gradient"/>
    <linearGradient id="linear-gradient-4" x1="356.44" y1="305.91" x2="403.19" y2="8.32" xlink:href="#linear-gradient"/>
    <linearGradient id="linear-gradient-5" x1="383.83" y1="283.97" x2="401.41" y2="172.11" xlink:href="#linear-gradient"/>
    <linearGradient id="linear-gradient-6" x1="365.03" y1="264.05" x2="388.33" y2="115.69" xlink:href="#linear-gradient"/>
    <linearGradient id="linear-gradient-7" x1="382.18" y1="257.86" x2="403.18" y2="124.17" xlink:href="#linear-gradient"/>
    <linearGradient id="linear-gradient-8" x1="374.94" y1="254.19" x2="395.37" y2="124.16" xlink:href="#linear-gradient"/>
    <linearGradient id="linear-gradient-9" x1="393.06" y1="342.16" x2="407.76" y2="248.6" xlink:href="#linear-gradient"/>
    <linearGradient id="linear-gradient-10" x1="402.45" y1="339.03" x2="416.11" y2="252.09" xlink:href="#linear-gradient"/>
    <linearGradient id="linear-gradient-11" x1="397.58" y1="328.03" x2="407.51" y2="264.82" xlink:href="#linear-gradient"/>
    <linearGradient id="linear-gradient-12" x1="371.48" y1="392.72" x2="404.41" y2="183.07" xlink:href="#linear-gradient"/>
    <linearGradient id="linear-gradient-13" x1="346.27" y1="398.19" x2="357.91" y2="324.08" xlink:href="#linear-gradient"/>
    <linearGradient id="linear-gradient-14" x1="356.73" y1="398.68" x2="367.48" y2="330.26" xlink:href="#linear-gradient"/>
    <linearGradient id="linear-gradient-15" x1="349.29" y1="412.03" x2="365.59" y2="308.28" xlink:href="#linear-gradient"/>
    <linearGradient id="linear-gradient-16" x1="362.42" y1="374.03" x2="372.74" y2="308.34" xlink:href="#linear-gradient"/>
    <linearGradient id="linear-gradient-17" x1="288.66" y1="418.54" x2="322.55" y2="202.87" xlink:href="#linear-gradient"/>
    <linearGradient id="linear-gradient-18" x1="278.78" y1="338.78" x2="311.8" y2="128.61" xlink:href="#linear-gradient"/>
    <linearGradient id="linear-gradient-19" x1="365.89" y1="309.22" x2="379.86" y2="220.29" gradientTransform="translate(811.53 146.55) rotate(-146.34) scale(1 -1)" xlink:href="#linear-gradient"/>
    <linearGradient id="linear-gradient-20" x1="359.74" y1="157.37" x2="362.5" y2="139.77" xlink:href="#linear-gradient"/>
    <linearGradient id="linear-gradient-21" x1="359.7" y1="169.99" x2="370.03" y2="104.21" xlink:href="#linear-gradient"/>
    <linearGradient id="linear-gradient-22" x1="367.73" y1="158.4" x2="373.63" y2="120.87" xlink:href="#linear-gradient"/>
  </defs>
  <path class="cls-23" d="m449.06,198.78c-.24-.88-4.13-12.49-6.91-18.77-.54-1.23-1.39-2.97-3.16-4.54-1.57-1.39-3.17-2.05-4.15-2.37-5.76-3.1-11.86-6.7-18.17-10.86-8.32-5.49-15.61-11.07-21.93-16.4-.49-1.64-1.81-5.19-5.14-7.31-1.65-1.05-2.88-1.16-3.16-1.19-2.79-.21-4.84,1.69-5.33,2.17-5.4,1.09-11.49,2.02-18.17,2.57-7.25.6-13.88.64-19.75.4-.92-.02-2.32.02-3.95.4-4.52,1.05-7.38,3.9-8.49,4.94-2.66,2.49-7.21,5.81-15.41,9.09-.95.55-2.71,1.76-3.95,3.95-2.36,4.17-.89,8.47-.59,9.28,1.75,4.76,6.71,6.58,9.68,7.7,10.64,4.01,21.24,0,25.28-1.78,2.46.19,5.1.27,7.9.2,8.57-.23,15.93-1.88,21.73-3.75,1.39,2.41,3.64,5.69,7.11,8.89,3.78,3.49,7.57,5.54,10.22,6.72,6.32,3.03,21.16-1.34,25.34,8.49,5.53,13.04,26.86,10.27,31.01,2.17Z"/>
  <path class="cls-23" d="m456.18,264.76c.97-.71-1.52-3.79-1.58-9.09-.04-3.91,1.28-5.49,4.35-12.84,3.46-8.3,5.2-12.44,5.33-17.19.16-5.61-1.56-9.9-2.37-11.85-3.54-8.55-9.97-13.2-12.84-15.01-1.39.13-3.44.28-5.93.32-14.63.25-25.25-3.58-31.4-5.46-7.96-2.42-19.58-4.97-35.16-5.14-2.44-.51-5.61-.93-9.28-.79-5.29.2-9.56,1.46-12.44,2.57-6.92,3.15-12.59,5.64-16.4,7.31-10.3,4.5-15.24,6.5-26.07,11.26-5.54,2.44-10.03,4.45-12.84,5.73-1.36.91-3.21,2.41-4.74,4.74-3.7,5.65-3.52,13.2-.59,18.77,3.32,6.31,9.41,8.67,13.04,10.07,3.64,1.41,6.88,1.84,9.09,1.98,4.16.19,11.99-.1,19.75-4.74,2.3-1.38,4.19-2.89,5.73-4.35,2.96.84,6.13,1.58,9.48,2.17,14.96,2.64,28.22,1.34,38.32-.79,4.99-.95,8.95-1.17,11.65-1.19,1.81-.01,3.25.06,4.94.59,2.56.8,3.76,2.04,5.53,3.16,2.89,1.83,5.32,2.08,8.89,2.77,4.91.94,12.66,7.41,18.96,10.36,9.89,4.63,15.14,7.69,16.59,6.63Z"/>
  <path class="cls-23" d="m456.18,264.76c1.16,1.79,2.67,4.33,4.15,7.51,1.89,4.06,3.09,6.65,3.56,10.27.13,1.04.73,6.25-1.58,12.25-.45,1.17-.97,2.27-6.52,10.07-5.87,8.27-6.37,8.56-7.7,11.26-1.88,3.79-.9,3.22-3.75,9.88-.75,1.74-1.62,3.66-1.58,6.32.03,1.8.45,3.01.79,4.15,0,0,1.43,4.87,1.38,10.86-.03,3.2-.07,7.61-2.96,11.65-2.48,3.46-5.95,5.09-7.31,5.73-2.16,1.01-4.02,1.42-5.73,1.78-3.78.8-5.79.59-8.1.79-7.98.7-16.95,6.07-20.35,9.88-.43.49-1.61,1.88-3.56,2.37-1.89.47-3.55-.15-4.2-.4-3.88-1.43-8.13-1.7-12-3.16-10.46-3.96-12.19-1.35-20.94-5.14-4.32-1.87-11.27-4.98-15.6-12.25-1.48-2.48-5.22-8.74-2.77-15.01,1.89-4.82,6.39-6.97,7.51-7.51,6.7-3.2,13.75-.8,19.56,1.19,4.62,1.58,8.15,3.61,10.47,5.14,1.83-1.78,4.63-4.08,8.49-5.93,5.74-2.75,11.01-3.16,14.02-3.16-.54-3.04-.59-6.43,1.38-8.3,1.27-1.2,2.91-1.33,3.36-1.38,6.62-.76,33.39-16.11,45.43-44.35,1.32-3.09,3.19-8.04,4.54-14.52Z"/>
  <path class="cls-23" d="m456.18,265.76c-8.42-10.06-17-12.6-20.76-13.4-6.63-1.4-12.67-.11-24.48,2.53-12.44,2.78-10.55,3.77-21.33,6.12-14.25,3.11-20.74,2.09-31.8,7.31-3.36,1.59-5.99,3.21-7.7,4.35-1.9-1.09-4.72-2.57-8.3-3.95-6.49-2.51-16.96-6.56-28.25-3.36-2.31.65-15.73,4.46-17.98,14.81-1.27,5.85,1.64,11.03,2.37,12.25,3.12,5.19,8.07,7.37,11.06,8.69,8.98,3.97,19.68,8.8,32.4,14.42,12.05,1.05,24.1,2.11,36.15,3.16,1.83.57,4.56,1.24,7.9,1.38,5.81.25,10.15-1.24,12.44-1.98,12.4-4,13.94-1.94,21.93-4.94,15.84-5.95,24.5-19.57,27.2-23.82,5.61-8.82,8.03-17.4,9.14-23.59Z"/>
  <rect class="cls-23" x="392.71" y="183.18" width="48.25" height="156.05" transform="translate(833.68 522.4) rotate(-180)"/>
  <path class="cls-17" d="m328.37,150.98c.78-.02,3.49,0,5.93,1.98.52.42,3.01,2.43,3.16,5.53.17,3.45-2.68,5.87-4.15,7.11-4.14,3.51-9.42,3.55-10.67,3.56-3.85.02-5.32-1.22-9.28-.4-1.18.25-2.68.56-4.35,1.58-2.19,1.34-2.88,2.81-6.52,6.91-.93,1.05-1.71,1.88-2.17,2.37-.69-1.59-1.59-4.21-1.58-7.51.01-6.18,3.19-10.49,4.35-12.05,7.84-10.62,24.44-9.17,25.28-9.09Z"/>
  <path class="cls-17" d="m352.62,363.99c.76.17,3.43.65,6.24-1.05.6-.36,3.47-2.1,4.28-5.49.9-3.77-1.38-6.97-2.56-8.62-3.31-4.65-8.49-5.7-9.72-5.94-3.77-.75-5.49.34-9.2-1.33-1.11-.5-2.51-1.13-3.93-2.56-1.86-1.89-2.23-3.64-4.93-8.85-.69-1.33-1.28-2.39-1.63-3.02-1.01,1.62-2.45,4.34-3.15,7.97-1.3,6.81.9,12.15,1.7,14.09,5.44,13.18,22.04,14.74,22.89,14.8Z"/>
  <path class="cls-17" d="m329.11,217.12c.56,1.87,1.61,6.31-.1,11.31-2.6,7.64-9.64,10.7-11.02,11.3-2.1.92-6.82,1.18-16.16,1.66-11.24.58-13.47.38-15.94,2.51-1.24,1.07-2.94,3.09-6.39,5.05-2.12,1.21-3.41,1.92-4.37,1.45-2.33-1.14-1.29-8.54.14-13.33,3.04-10.16,10.13-16.18,11.07-16.96,10.53-8.7,22.99-8.28,27.69-7.79,6.85.71,12.07,3.12,15.08,4.79Z"/>
  <path class="cls-17" d="m329.55,296.13c.51-1.88,1.43-6.36-.42-11.3-2.82-7.56-9.95-10.42-11.34-10.98-2.13-.86-6.85-.98-16.2-1.19-11.25-.25-13.48.01-16.01-2.05-1.27-1.04-3.03-3-6.53-4.86-2.16-1.15-3.47-1.82-4.41-1.33-2.29,1.2-1.04,8.57.53,13.32,3.33,10.07,10.59,15.88,11.56,16.63,10.78,8.39,23.22,7.61,27.9,6.99,6.83-.91,11.97-3.46,14.94-5.22Z"/>
  <path class="cls-26" d="m422.89,311.87c-3.26,1.4-7.13,2.77-11.56,3.85-7.2,1.75-13.61,2.15-18.62,2.07"/>
  <path class="cls-26" d="m424.67,252.01c-4.41.24-9.76.88-15.7,2.37-6.55,1.64-12.01,3.86-16.25,5.93"/>
  <path class="cls-26" d="m417.85,246.68c-4.74-2.17-9.48-4.35-14.22-6.52-2.96.2-5.93.4-8.89.59"/>
  <path class="cls-26" d="m422.89,235.13c-4.15.89-8.3,1.78-12.44,2.67"/>
  <path class="cls-17" d="m438.74,198.86c-11.29-3.36-22.77-6.08-34.37-8.12-3.77-.82-7.65-.33-11.73-.85l.26-1.78c3.71.56,7.81.14,11.77,1.06,3.87.75,7.73,1.57,11.57,2.47,7.68,1.79,15.29,3.89,22.8,6.27l-.29.96h0Z"/>
  <path class="cls-26" d="m413.11,326.09c-2.93.13-7.46.71-12.44,2.96-3.46,1.56-6.1,3.47-7.95,5.04"/>
  <path class="cls-4" d="m444.88,349.27c.04,1.52-.09,4.56-1.78,7.81-1.69,3.24-4.05,4.97-5.28,5.86-3.63,2.61-7.29,3.29-10.27,3.8-3.95.68-4.04-.02-8.06.69-1.39.25-5.11.99-9.49,3.08-4.27,2.04-6.41,3.06-8.12,5.25-.5.64-1.29,1.79-2.82,2.72-.49.29-1.97,1.17-3.92,1.19-1.42.02-2.19-.43-3.79-1-2.43-.87-2.58-.53-6.39-1.49-3.76-.95-3.4-1.23-7.06-2.19-2.31-.61-4.15-.94-7.82-1.6-4.95-.89-4.34-.59-5.98-1.01-3.85-.99-6.64-2.49-9.09-3.81-1.03-.56-2.53-1.42-4.05-2.56-.45-.34-.78-.61-1.29-1.03-1.42-1.17-2.13-1.75-2.05-1.9.16-.31,2.61,1.48,6.04,1.44.5,0,2.01-.06,3.75-.79,2.51-1.04,3.95-2.81,4.56-3.67.13.8.42,1.94,1.17,3.08,1.94,2.97,5.57,3.79,10.07,4.74,1.26.27,1.03.16,7.11.99,6.98.94,7.87,1.16,9.68.99,3.35-.31,5.54-1.53,7.7-2.57,3.11-1.5,1.71-.49,19.56-6.12,12.48-3.94,15.08-5.04,17.38-6.12,4.49-2.12,7.97-4.26,10.23-5.76Z"/>
  <path class="cls-16" d="m392.71,334.09v-14.57c2.94.19,6.08-1.88,9.39-1.87,14.39.03,24.91-9.73,33.53-11.85-1.78.91-4.51,8.63-6.44,10.67-3.16,3.33-8.33,9.04-8.3,10.66-5.3.07-4.53-1.52-7.78-1.04-2.68.4-5.29.46-10.2,2.05-4.52,1.46-7.94,4.61-10.2,5.95Z"/>
  <path class="cls-19" d="m392.71,241.92v18.39c2.57-1.25,4.8-2.17,6.51-2.83,6.31-2.43,9.46-3.65,13.35-3.91,3.27-.22,5.31.26,6.05-1,.62-1.06-.38-2.13-.83-5.33-.1-.73-.45-3.2.05-5.4.24-1.06,1.12-4.02,5.04-6.72-4.49.79-9.14,1.71-13.93,2.77-5.68,1.25-11.1,2.61-16.25,4.03Z"/>
  <path class="cls-25" d="m438.09,198.14c-.07.22-8.09-3.77-20.15-5.4-8.79-1.19-14.79-.45-23.86-4.12-3.38-1.37-5.51-2.67-6.05-3-6.68-4.14-10.57-9.59-12.64-13.11-3.76,1.22-8.36,2.4-13.69,3.11-6.15.82-11.58.78-15.94.45-1.96.92-4.9,2.08-8.61,2.78-3.25.61-10.03,1.41-17.43-1.29-5.45-1.98-7.21-4.4-7.71-5.14-1.12-1.66-1.57-3.31-1.77-4.42,1.56,0,3.19.05,4.9.17,2.93.19,5.65.55,8.12.98,1.24.74,2.75,1.46,4.53,1.99,6.67,1.97,12.58-.14,15.01-1.19,4.23.32,9.63.34,15.8-.59,6.71-1.01,12.26-2.84,16.4-4.54,1.58.72,3.97,1.95,6.52,3.95,4.09,3.21,5.51,5.98,7.9,8.49,3.92,4.12,8.36,5.35,13.83,7.11,17.98,5.79,34.96,13.46,34.86,13.78Z"/>
  <path class="cls-10" d="m422.89,235.13c-.04-.31-2.01-.4-16.49.59-23.25,1.6-26.2,2.38-32.79,2.37-7.59-.01-18.69-1.09-32.4-6.32-2.96,4.16-6.12,6.55-8.3,7.9-13.38,8.31-29.75,2.37-33.16,1.13-2.27-.82-4.09-1.69-5.33-2.33,1.15,1.72,3.03,4.11,5.87,6.28,10.26,7.84,23.05,5.15,25.49,4.64,8.42-1.77,13.13-5.67,16.28-8.27.62.41,9.6,2.22,10.8,2.36,10.28,1.22,12.21,1.61,21.77,1.01,4.14-.26,6.54-.67,20.71-3.44,25.47-4.99,27.6-5.6,27.56-5.93Z"/>
  <path class="cls-6" d="m375.19,193.05c.53.34,6.07,3.96,5.93,9.09-.08,3.07-2.19,6.1-3.16,7.51-.18.26-.83,1.18-1.84,2.29-1.78,1.94-3.56,3.22-4.87,4.03,1.25-1.31,3.91-4.46,4.84-9.28.87-4.49-.22-8.04-.44-8.74-1.35-4.21-4.09-6.76-3.7-7.11.15-.14.79.09,3.26,2.22Z"/>
  <path class="cls-18" d="m359.78,191.27c-.84.89-2.05,2.41-2.81,4.59-1.17,3.35-.57,6.25-.15,8.15,1.04,4.7,3.65,7.89,5.19,9.48-1.76-4.21-2.57-7.83-2.96-10.37-.62-3.98-.41-6.31-.3-7.26.23-1.93.67-3.5,1.04-4.59Z"/>
  <path class="cls-21" d="m365.41,191.27c1.29,1.1,3.01,2.88,4.3,5.48,1.59,3.22,1.72,6.08,1.78,7.7.1,2.69-.34,4.9-.74,6.37-1.67-2.94-3.2-5.24-4.3-6.81-3.45-4.95-5.43-6.69-5.33-9.78.05-1.46.58-3.85,1.93-4.15,1-.22,2.03.82,2.37,1.19Z"/>
  <path class="cls-20" d="m357.85,294.53c.57.07,1.87,5.98-1.04,9.63-1.07,1.34-3.29,2.61-7.72,5.15-.13.08-.31.17-1.62.92-.84.48-3.34,1.91-4.15,2.37,2.42-2.63,4.5-4.62,5.93-5.93,3.55-3.26,5.18-4.26,6.67-6.96,1.63-2.96,1.57-5.23,1.93-5.19Z"/>
  <path class="cls-24" d="m344.22,295.42c-.89.41-3.48,1.76-4.89,4.74-2.45,5.19,1.03,10.3,1.19,10.52-.17-1.8-.21-4.4.44-7.41.78-3.54,2.2-6.2,3.26-7.85Z"/>
  <path class="cls-9" d="m351.04,296.16c-.18,1.47-.6,3.52-1.63,5.78-1.24,2.73-2.86,4.63-4,5.78.14-1.57.57-4.17,2.07-6.96,1.15-2.13,2.53-3.64,3.56-4.59Z"/>
  <path class="cls-1" d="m308.33,300.81c.94.42,2.38,1.05,4.14,1.83,8.88,3.94,13.31,5.91,13.98,6.24,6.34,3.11,8.46,4.75,13.83,6.15,1.21.32,2.22.52,2.9.65,7.3.64,14.61,1.28,21.91,1.92,4.16.36,8.31.73,12.47,1.09,1.09.34,2.26.64,3.53.88,5.74,1.07,10.37.19,13.51-.44,12.15-2.47,24.61-6.02,26.87-6.67-5.21.92-12.91,1.97-22.28,2.08-7.13.08-7.82-.47-20.59-1.19-18.93-1.06-22.65-.15-32.44-2.52-7.26-1.75-11.43-3.76-14.67-5.78-5.16-3.23-8.66-6.96-10.81-9.63-4.11,1.8-8.22,3.59-12.34,5.39Z"/>
  <path class="cls-11" d="m395.19,361.94c.29-.35,4.79,1.34,6.22,5.33.98,2.73.08,5.29-.3,6.22-.13-1.33-.45-3.18-1.33-5.19-1.86-4.2-4.84-6.06-4.59-6.37Z"/>
  <path class="cls-15" d="m387.19,364.9c-.53.11-.66,3.54.59,6.67.97,2.43,2.7,4.5,3.11,4.3.31-.16-.14-1.63-.89-4-.98-3.11-2.23-7.08-2.81-6.96Z"/>
  <path class="cls-8" d="m390,361.05c.96.55,5.5,3.27,6.96,8.89.87,3.35.25,6.19-.15,7.56-.36-3.17-1.43-5.22-2.37-6.52-1.35-1.86-2.57-2.37-3.56-4.3-1.05-2.04-1.06-4.14-.89-5.63Z"/>
  <path class="cls-12" d="m379.38,341.98c2.59,1.28,4.06,2.83,4.85,3.82.09.12.31.4.58.79,1.42,2.09,2.57,4.95,2.09,5.28-.6.41-4.05-2.9-6.22-6.96-.61-1.15-1.02-2.18-1.29-2.93Z"/>
  <path class="cls-2" d="m451.64,310.62c-2,1.5-4.42,3.72-6.52,6.88-.87,1.3-3.18,5.02-4.15,10.27-.59,3.2-.94,5.15,0,6.72.28.47,1.27,1.88,2.15,4.12.05.14.13.32.2.54.58,1.61.91,3.14,1.2,5.31.35,2.6.31,3.63.39,3.63.17,0-.25-7.5-.93-9.9-.61-2.14-1.12-3.71-1.23-4.62-.26-2.03.28-3.76.67-5.11.62-2.19,1-2.1,2-4.96.93-2.64.7-2.98,1.63-5.26.18-.43.79-1.9,1.85-3.7.95-1.6,1.91-2.91,2.74-3.91Z"/>
  <path class="cls-22" d="m462.66,233.47c-1.32,1.11-3.19,2.76-5.25,4.91-4.11,4.29-6.16,6.44-7.11,9.19-2.7,7.82,3.09,16,4,17.23,1.66,2.27,3.44,3.8,4.68,4.73-1.6-3.02-2.58-5.67-3.19-7.59-.95-3-1.51-4.82-1.33-7.26.11-1.54.67-3.02,1.78-5.93,1.42-3.72,2.31-5.25,4-9.19.59-1.39,1.46-3.48,2.44-6.1Z"/>
  <path class="cls-3" d="m346.2,173.24c1.24-1.12,2.9-2.86,4.27-5.34,2.24-4.07,2.34-7.69,2.95-7.64.52.04,1.18,2.71.62,5.22-1.15,5.15-6.89,7.41-7.84,7.77Z"/>
  <path class="cls-14" d="m393.26,148.01c.24.33-1.64,2.75-4.44,3.56-1.71.49-3.24.24-4.15,0,.99-.39,2.49-.99,4.3-1.78,3.31-1.44,4.16-1.97,4.3-1.78Z"/>
  <path class="cls-5" d="m390.46,139.15c.34.69.24,1.37.13,2.05-.53,3.4-3.5,5.48-4.15,5.93-1.69,1.18-3.42,1.7-4.74,1.93.8-.8,1.67-1.87,2.37-3.26,1-1.96,1.22-3.68,1.33-4.59.19-1.56.11-2.88-.02-3.83,2.42-.25,4.4.42,5.07,1.78Z"/>
  <path class="cls-13" d="m381.11,139.52c-.4.75-.88,1.82-1.19,3.16-.31,1.36-.34,2.55-.3,3.41-.26-.77-.69-1.97-1.33-3.41-.64-1.43-1-1.99-.76-2.49l3.58-.67Z"/>
  <path class="cls-7" d="m362.26,359.83c-.5.99-1.44,1.85-3.47,3.1-2.51,1.54-4.29,1.25-6.62,1.09-.97-.07-4.93-.92-8.07-2.04-3.1-1.1-5.81-2.39-8.7-4.99-5.47-4.93-6.97-11.15-7.39-13.4-.27-1.45-.36-2.69-.38-3.56.35.24.87.63,1.43,1.18,1.45,1.44,1.93,2.81,2.57,3.95.72,1.29,1.73,2.17,3.75,3.95,6.24,5.48,13.86,7.53,15.31,7.9,3.08.79,5.11.9,7.11.4.96-.24,2.96-.78,4.44-2.57.44-.53.72-1.03.89-1.38.19.49.29,2.11.2,3.27-.11,1.48-.76,2.67-1.08,3.11Z"/>
  <path class="cls-7" d="m329.76,295.37c-.89,3.06-3.16,3.16-7.31,3.95-.91.17-4.87,1.86-10.46,2.29-4.76.36-8.48-.24-10.07-.55-2.53-.49-8.03-1.6-13.79-5.67-1.04-.74-5.17-3.75-8.8-9.2-2.15-3.23-3.41-6.26-4.16-8.47,0-.22.04-2.36,1.26-2.9.66-.29,1.42,0,2.77.79,2.49,1.47,4.08,2.97,4.74,3.56,1.26,1.11,2.88,1.93,6.12,3.56,5.8,2.91,9.32,3.23,19.95,6.52,7.45,2.31,9.14,3.21,12.05,2.37,3.64-1.05,5.99-3.9,7.35-6.01.38.97.78,2.27.95,3.83.27,2.56-.19,4.65-.59,5.93Z"/>
  <path class="cls-7" d="m326.6,233.04c-1.04,1.43-2.9,3.6-5.84,5.27-2.56,1.45-4.78,1.86-7.58,2.36-3.17.57-5.9.62-11.35.72-3.4.06-6.78.48-10.17.56-.73.02-2.11.04-3.7.71-1.3.54-1.81,1.13-3.83,2.9-3.96,3.49-5.31,4.17-6.66,4.5-.9.22-2.12.5-2.97-.22-1.04-.88-.76-2.6-.72-2.82.98-.53,2.43-1.37,4.03-2.61,3.31-2.56,4.71-4.8,5.93-6.12.81-.88,2.67-2.58,16.99-4.35,11.45-1.41,10.98-.41,17.19-1.78,5.17-1.14,9.7-2.76,10.26-1.68,0,0-.58,1.37-1.56,2.56Z"/>
  <path class="cls-7" d="m329.33,167.94c-1.74.7-3.17.91-4.03,1.03-.63.09-2.07.26-3.93.14-2.25-.14-2.44-.53-4.54-.6-1.74-.06-3.04.17-3.47.25-.85.16-2.21.42-3.69,1.21-1.25.66-1.99,1.38-3.13,2.52-1.79,1.78-2.19,2.67-4.51,5.29-.72.81-1.33,1.45-1.7,1.85-.17-.38-.38-.9-.58-1.52-.61-1.8-.8-3.27-.87-3.88-.19-1.65-.11-3-.03-3.79.08-.87.22-1.6.34-2.16,1.18-1.14,2.76-2.41,4.81-3.46,5.87-3.03,11.65-2.32,14.02-1.88,1.53.27,2.79.41,3.65.49,3.08.28,7.57.37,12.74-.69.87-.18,1.58-.35,2-.46-.43.62-1.08,1.47-1.99,2.35-2.04,1.98-4.12,2.93-5.08,3.32Z"/>
</svg>