<?xml version="1.0" encoding="UTF-8"?>
<svg id="Layer_1" data-name="Layer 1" xmlns="http://www.w3.org/2000/svg" viewBox="0 0 234.7 607.17">
  <defs>
    <style>
      .cls-1 {
        fill: #EDE6D6;
        stroke-width: 0px;
      }

      .cls-2 {
        fill: none;
        stroke: #EDE6D6;
        stroke-miterlimit: 10;
      }
    </style>
  </defs>
  <path class="cls-1" d="M225.49,54.24v544.33H9.21V54.24h216.28M226.49,53.24H8.21v546.33h218.28V53.24h0Z"/>
  <path class="cls-1" d="M117.14,22.57c6.34,0,11.5,5.16,11.5,11.5s-5.16,11.5-11.5,11.5-11.5-5.16-11.5-11.5,5.16-11.5,11.5-11.5M117.14,21.57c-6.9,0-12.5,5.6-12.5,12.5s5.6,12.5,12.5,12.5,12.5-5.6,12.5-12.5-5.6-12.5-12.5-12.5h0Z"/>
  <path class="cls-2" d="M234.2,71.44v509.95c-13.96,0-25.28,11.32-25.28,25.28H25.78c0-13.96-11.32-25.28-25.28-25.28V71.44c13.96,0,25.28-11.32,25.28-25.28h77.8c-2.31-2.73-3.81-6.16-4.16-9.93l-15.05-5.32,15.57-.92c.55-2.13,1.49-4.1,2.74-5.85l-8.32-12.53,12.53,8.31c2.15-1.54,4.64-2.61,7.35-3.07l2.89-14.32,2.87,14.24c2.77.4,5.33,1.44,7.54,2.96l12.23-8.12-8.05,12.12c1.4,1.85,2.45,3.98,3.05,6.29l15,.89-14.48,5.11c-.3,3.85-1.82,7.36-4.17,10.14h77.8c0,13.96,11.32,25.28,25.28,25.28Z"/>
</svg>