<?xml version="1.0" encoding="UTF-8"?>
<svg id="Layer_1" data-name="Layer 1" xmlns="http://www.w3.org/2000/svg" viewBox="0 0 233.7 595.27">
  <defs>
    <style>
      .cls-1 {
        fill: #EDE6D6;
        stroke-width: 0px;
      }
    </style>
  </defs>
  <path class="cls-1" d="M112.31,1.73c-.27.23-.53.48-.79.73-5.93,5.87-5.97,15.48-.09,21.41,2.86,2.89,6.68,4.48,10.75,4.48s7.8-1.56,10.66-4.38c.26-.26.51-.52.74-.79-.79,2.86-2.32,5.48-4.51,7.65-1.18,1.17-2.51,2.16-3.94,2.92l-3.99,2.14h86.16c.58,13.67,11.59,24.68,25.26,25.27v507.71c-13.66.58-24.67,11.6-25.26,25.27H26.39c-.58-13.67-11.59-24.68-25.26-25.27V61.16c13.66-.58,24.67-11.6,25.26-25.27h86.08l-3.92-2.14c-1.47-.8-2.83-1.82-4.03-3.03-6.74-6.8-6.7-17.82.1-24.56,2.17-2.15,4.81-3.66,7.68-4.43M116.83,0c-4.7,0-9.4,1.78-13,5.35-7.26,7.2-7.31,18.91-.11,26.17,1.3,1.31,2.75,2.39,4.29,3.23H25.28c0,13.96-11.32,25.29-25.28,25.29v509.94c13.96,0,25.28,11.33,25.28,25.29h183.14c0-13.96,11.32-25.29,25.28-25.29V60.04c-13.96,0-25.28-11.33-25.28-25.29h-82.74c1.51-.81,2.92-1.85,4.2-3.12,3.78-3.74,5.6-8.71,5.46-13.64-.69,1.9-1.78,3.66-3.3,5.17-2.73,2.7-6.29,4.05-9.85,4.05s-7.21-1.38-9.95-4.14c-5.44-5.49-5.41-14.36.08-19.8,1.52-1.51,3.3-2.59,5.19-3.26-.23,0-.45-.01-.68-.01h0Z"/>
  <path class="cls-1" d="M224.85,42.98v544.05H8.85V42.98h216M225.99,41.85H7.71v546.33h218.28V41.85h0Z"/>
</svg>