<?xml version="1.0" encoding="UTF-8"?>
<svg xmlns="http://www.w3.org/2000/svg" xmlns:xlink="http://www.w3.org/1999/xlink" viewBox="0 0 878.67 568.52">
  <defs>
    <style>
      .cls-1 {
        fill: url(#linear-gradient);
      }

      .cls-1, .cls-2, .cls-3, .cls-4, .cls-5, .cls-6, .cls-7 {
        stroke-width: 0px;
      }

      .cls-8 {
        fill: none;
        stroke: #506e32;
        stroke-linecap: round;
        stroke-miterlimit: 10;
        stroke-width: 3px;
      }

      .cls-2 {
        fill: url(#linear-gradient-2);
      }

      .cls-3 {
        fill: #0a3a35;
      }

      .cls-4 {
        fill: url(#linear-gradient-3);
      }

      .cls-5 {
        fill: #002a26;
      }

      .cls-6 {
        fill: #77a145;
      }

      .cls-7 {
        fill: url(#linear-gradient-4);
      }
    </style>
    <linearGradient id="linear-gradient" x1="307.13" y1="528.22" x2="456.46" y2="112.22" gradientUnits="userSpaceOnUse">
      <stop offset=".23" stop-color="#486c84"/>
      <stop offset=".67" stop-color="#231f20" stop-opacity="0"/>
    </linearGradient>
    <linearGradient id="linear-gradient-2" x1="448.61" y1="523.54" x2="427.24" y2="328.69" gradientUnits="userSpaceOnUse">
      <stop offset="0" stop-color="#486c84"/>
      <stop offset=".75" stop-color="#231f20" stop-opacity="0"/>
    </linearGradient>
    <linearGradient id="linear-gradient-3" x1="458.83" y1="670.11" x2="416.16" y2="175" gradientUnits="userSpaceOnUse">
      <stop offset=".17" stop-color="#486c84"/>
      <stop offset=".56" stop-color="#231f20" stop-opacity="0"/>
    </linearGradient>
    <linearGradient id="linear-gradient-4" x1="312.11" y1="560.54" x2="424.11" y2="-152.35" xlink:href="#linear-gradient-3"/>
  </defs>
  <g id="Layer_4" data-name="Layer 4">
    <path class="cls-6" d="m32.21,217.59c9.52,7.97,23.67,18.85,42.07,29.63,44.12,25.84,83.38,33.95,118.52,40.89,97.48,19.26,146.22,28.89,162.37,31.41,91.19,14.22,112.56,14,191.41,27.85,41.28,7.25,74.84,14.23,96.59,18.96-11.3,1.82-28.12,4.31-48.59,6.52-70.47,7.61-87.34,1.42-143.41,5.93-14.32,1.15-75.84,6.59-140.14,28.6-33.12,11.33-55.37,23.09-72.05,33.55-11.71,7.34-19.82,13.51-32.54,23.18-25.55,19.43-42.2,32.25-58.67,52.74-6.27,7.8-14.83,19.6-23.11,35.56,5.69-3.95,13.82-9.52,23.7-16,12.97-8.51,45.61-29.91,75.26-45.04,46.32-23.63,87.89-33.25,106.07-37.33,54.84-12.33,98.38-11.85,132.74-11.26,50.52.87,109.07,7.42,116.74,8.3,33.99,3.86,60.11,8.12,95.41,0,33-7.59,47.35-19.87,52.15-24.3,22.44-20.72,27.69-46.93,29.04-55.7,5.05-32.95-8.63-57.99-13.04-65.78-6.37-11.26-17.89-26.77-64-53.93-48.65-28.65-85.93-41.48-85.93-41.48-78.74-27.11-119.69-32.58-208.89-56.89-104.49-28.48-151.97-49.22-195.56-75.56-18.27-11.04-32.81-21.22-42.67-28.44-16.3,8.89-37.16,22.86-56.89,44.44-43.01,47.06-53.49,100.6-56.59,124.15Z"/>
    <path class="cls-1" d="m32.21,217.59c9.52,7.97,23.67,18.85,42.07,29.63,44.12,25.84,83.38,33.95,118.52,40.89,97.48,19.26,146.22,28.89,162.37,31.41,91.19,14.22,112.56,14,191.41,27.85,41.28,7.25,74.84,14.23,96.59,18.96-11.3,1.82,111.25,13.52,112.59,4.74,5.05-32.95-8.63-57.99-13.04-65.78-6.37-11.26-17.89-26.77-64-53.93-48.65-28.65-85.93-41.48-85.93-41.48-78.74-27.11-119.69-32.58-208.89-56.89-104.49-28.48-151.97-49.22-195.56-75.56-18.27-11.04-32.81-21.22-42.67-28.44-16.3,8.89-37.16,22.86-56.89,44.44-43.01,47.06-53.49,100.6-56.59,124.15Z"/>
    <path class="cls-2" d="m742.72,305.3c-6.37-11.26-17.89-26.77-64-53.93-48.65-28.65-210.99,82.15-132.15,96,41.28,7.25,74.84,14.23,96.59,18.96-11.3,1.82-28.12,4.31-48.59,6.52-70.47,7.61-87.34,1.42-143.41,5.93-14.32,1.15-75.84,6.59-140.14,28.6-33.12,11.33-91.88,47.06-104.6,56.73-25.55,19.43-42.2,32.25-58.67,52.74-6.27,7.8-14.83,19.6-23.11,35.56,5.69-3.95,13.82-9.52,23.7-16,12.97-8.51,45.61-29.91,75.26-45.04,46.32-23.63,87.89-33.25,106.07-37.33,54.84-12.33,98.38-11.85,132.74-11.26,50.52.87,109.07,7.42,116.74,8.3,33.99,3.86,60.11,8.12,95.41,0,33-7.59,47.35-19.87,52.15-24.3,22.44-20.72,27.69-46.93,29.04-55.7,5.05-32.95-8.63-57.99-13.04-65.78Z"/>
    <path class="cls-4" d="m124.65,552.41c15.11-11.01,36.29-25.51,62.75-40.71,24.28-13.95,52.62-30.05,91.74-43.67,40.8-14.21,73.51-18.83,94-21.61,59.5-8.08,108.06-3.93,131.66-1.86,11.84,1.04,60.85,5.66,101.44,9.58,12.8,1.24,31.58,3.06,55.9-.63,17.17-2.61,34.32-5.41,52.39-17.66,21.47-14.56,30.97-33.5,33.06-37.85,6.43-13.41,8.33-25.64,8.94-33.41-2.81,4.88-7.16,11.58-13.5,18.65-18.64,20.76-40.31,28.81-48.89,32-41.65,15.48-98.07,9.62-125.33,7.11-72.84-6.7-113.93-10.47-165.33-6.22,0,0-68.5,5.66-138.74,29.68-11.43,3.91-34.8,12.01-63.04,27.21-10.53,5.67-18.22,9.81-26.56,15.84-13.02,9.43-27.36,28.01-50.48,63.57Z"/>
    <path class="cls-7" d="m42.34,173.37c-5.31,16-8.39,30.98-10.13,44.22,5.13,4.3,12.28,10.01,21.17,16.22,10,6.98,31.23,20.92,60.85,32.94,25.91,10.52,46.65,14.87,66.79,18.99,76.69,15.7,115.04,23.55,146.92,28.86,22.15,3.69,66.26,11.03,120.5,18.06,12.63,1.64,34.43,4.37,64.73,9.1,22.49,3.51,39.45,6.16,60.22,10.46,19.68,4.08,46.36,10.38,77.85,20.23,7.48.92,14.97,1.84,22.45,2.76,1.88-3.79,3.84-9.39,2.46-15.35-3.15-13.52-21.44-19.69-33.57-23.47-54.38-16.92-105.52-23.16-107.56-23.41-24.67-3.01-49.12-7.57-73.78-10.67-92.77-11.65-177.07-41.9-221.33-57.78-54.04-19.39-119.86-47.13-191.62-87.17-2.08,5.02-4.08,10.35-5.96,15.99Z"/>
  </g>
  <g id="Layer_3" data-name="Layer 3">
    <path class="cls-3" d="m121.69,68.26c59.97,40.73,112.43,63.95,149.33,77.63,6.03,2.23,40.64,12.58,109.63,33.19,51.13,15.27,101.69,32.39,152.89,47.41,0,0,30.69,9,88.89,33.78,0,0,17.87,7.61,53.33,35.56,5.36,4.22,14.95,12.1,17.19,24.3.19,1.05.99,5.75,0,11.85-1.44,8.83-5.85,14.76-9.48,19.56-2.75,3.64-6.17,8.15-11.85,11.85-8.12,5.29-16.34,5.99-21.86,6.37-22.8,1.56-41.84.47-55.19.12-2.89-.08-13.97.1-36.13.45-24.6.39-36.9.58-53.35,1.16-21.18.74-31.77,1.11-46.82,2.43-21.42,1.88-37.53,4.39-43.46,5.35-7.53,1.22-22.24,3.63-40.48,8.05-19.42,4.71-87.69,28.58-95.01,31.77-20.91,9.11-36.86,19.23-47.41,26.67,10.31-4.13,24-9.34,40.3-14.81,41.19-13.84,73.79-20.85,84.74-23.11,45.42-9.36,80.96-11.55,106.67-13.04,72.48-4.19,136.89-1.78,136.89-1.78s23.33.87,67.56-4.74c19.4-2.46,32.24-5.08,45.04-14.22,4.23-3.02,16.32-11.9,23.11-28.44,2.04-4.96,6.35-15.86,4.15-29.63-1.51-9.45-5.41-16-8.3-20.74-5.59-9.18-11.79-14.98-24.11-25.11-16.67-13.72-25-20.57-37.52-28.82-6.22-4.1-21.31-13.74-43.33-24.17-24.6-11.65-44.54-18-62.37-23.47-49.36-15.16-72.05-20.48-105.42-30.13-35.7-10.32-60.32-18.86-99.76-32.53,0,0-48.83-16.93-114-44.37-14.03-5.91-38.47-16.4-65.32-37.45-6.88-5.4-12.29-10.2-15.86-13.51-4.01-.2-13.78-.12-23.7,5.93-14.49,8.83-18.26,23.66-18.96,26.67Z"/>
  </g>
  <g id="Layer_2" data-name="Layer 2">
    <path class="cls-5" d="m164.35,35.67c11.53,10.48,28.73,24.61,51.56,38.22,23.31,13.9,42.76,21.45,66.67,30.22,56.12,20.59,116.35,40.65,127.43,44.13,43.27,13.6,70.51,23.31,114.34,34.98,49.3,13.12,71.19,19.68,110.22,38.22,21.46,10.2,31.3,21.81,47.11,36.44,20.38,18.87,31.72,31.72,34.81,41.78,1.78,5.79,6.6,17.2,2.22,30.67-.85,2.61-4.8,12.57-17.19,22.67-23.94,19.52-52.38,20.02-61.93,19.85,0,0-50.29-3.67-141.93-1.19-89.09,2.41-145.68,22.81-168.99,30.32-12.67,4.08-20.44,6.81-30.12,10.57-1.61.63-4.35-.82-7.6-1.38-12.35-2.12-15.28-1.99-18.57-4.35-1.94-1.39-4.68-4.12-6.32-9.88,1.94.93,4.62,2.09,7.9,3.16,0,0,8.14,2.65,17.38,3.16,16.44.9,32.7-5.74,35.95-7.11-2.51-.49-6.06-1.25-10.27-2.37-7.53-2.01-11.3-3.01-14.62-5.14-2.53-1.62-7.07-5.23-10.27-13.04,4.72,2.15,11.59,4.92,20.15,7.11,17.76,4.54,31.97,3.83,43.46,3.16,12.06-.7,29.31-2.87,49.38-9.48-3.72-.9-8.41-2.44-13.43-5.14-7.76-4.17-13.02-9.34-16.2-13.04,4.02,2.51,9.74,5.64,16.99,8.3,3.36,1.23,13.66,4.78,27.65,5.53,9.92.53,18.64-.5,25.68-1.98-2.91-.67-6.85-1.92-11.06-4.35-5.62-3.24-9.31-7.18-11.46-9.88,3.8,1.76,8.16,3.54,13.04,5.14,4.83,1.58,9.36,2.73,13.43,3.56-3.82-1.58-9.42-4.42-15.01-9.48-6.36-5.76-9.94-11.88-11.85-15.8,5.94,4.3,13.03,8.71,21.33,12.64,23.7,11.21,45.94,13.15,60.44,13.04-2.04-2.92-4.75-6.22-8.3-9.48-7.47-6.86-15.26-10.4-20.54-12.25,8.95.95,15.9,2.83,20.54,4.35,12.05,3.93,16.76,8.1,31.21,12.64.42.13,6.72,2.1,13.83,3.56,9.62,1.97,24.97,3.88,45.04,1.19-4.78-1.74-10.19-3.4-16.2-4.74-10.28-2.3-19.56-3.07-27.26-3.16,5.41-1.49,11.89-2.75,19.26-3.16,18.52-1.02,33.43,3.86,42.37,7.7-4.03-.37-14.98-1.93-24.3-10.67-4.69-4.39-7.37-9.12-8.89-12.44,3.85,3.59,9.83,8.28,18.07,11.56,5.03,1.99,10.46,2.81,21.33,4.44,17.68,2.66,22.14,1.8,30.52,5.93,3.96,1.95,4.69,2.99,8,3.85,8.14,2.11,16.05-1.01,21.63-4.15-2.15-.7-5.38-1.84-9.19-3.56-7.08-3.19-11.61-5.29-15.11-9.78-3.61-4.62-4.77-10.03-4.15-10.37.56-.3,2.35,3.62,6.52,7.11,4.38,3.67,8.96,4.83,12.15,5.63,11.29,2.85,21.63-.19,26.07-1.78-2.43.49-6.76,1.02-11.85-.3-7.5-1.94-11.99-6.67-13.63-8.59,5.63,1.78,11.26,3.56,16.89,5.33,3.35.67,8.62,1.25,14.81,0,10.52-2.13,17.22-8.25,19.85-10.96-2.34.83-5.79,1.85-10.07,2.37-2.89.35-6.72.54-6.81,0-.12-.68,6.05-1.09,10.96-4.74,4.69-3.49,6.72-8.82,7.7-13.04-1.11,1.43-2.85,3.41-5.33,5.33-2.45,1.9-6.07,4.09-6.52,3.56-.56-.66,4.73-4.32,7.7-10.67,2.79-5.96,2.25-11.96,2.07-14.22-.23-2.99-.84-5.45-1.38-7.21,1.35,1.26,3.57,3.03,6.72,4.35,3.66,1.54,6.93,1.78,8.89,1.78-2.02-.55-5.54-1.84-8.69-4.94-1.32-1.3-2.27-2.61-2.96-3.75,2.03.55,5.06,1.11,8.69.79,7.42-.65,13.73-4.64,13.43-5.53-.16-.48-2.18.22-5.53.2-5.05-.03-8.77-1.65-12.25-3.16-10.89-4.74-22.6-15.41-24.1-16.79,2.03.73,4.27,1.41,6.72,1.98,6.52,1.5,12.36,1.67,16.99,1.38-3.08-.32-7.74-1.09-13.04-3.16-6.31-2.47-15.43-6.04-16.59-13.04-.66-4.01,1.21-9.64,5.53-11.26,3.19-1.2,6.36.3,7.31.79-.96-1.7-2.6-4.01-5.33-5.53-4.45-2.48-8.75-1.19-14.62-.99,0,0-5.75.2-16.59-2.37-14.97-3.55-27.54-14.55-26.27-17.58.25-.59,1.02-.79,2.57-1.19,4.33-1.11,8.04.26,9.68.99-2.61-1.3-6.59-3.02-11.65-4.15-6.28-1.4-10.81-1.12-13.63-1.19-5.86-.14-14.29-2.03-25.09-10.07,2-.44,4.18-.79,6.52-.99,9.75-.82,17.95,1.39,23.51,3.56-3.89-2.21-9.77-5.34-17.19-8.49-18.6-7.92-32.7-9.97-58.86-14.42-10.74-1.83-27.55-4.74-48.79-8.69-4.48-.86-8.95-1.71-13.43-2.57,2.38-.18,5.12-.58,8.1-1.38,6.27-1.68,11.04-4.46,14.22-6.72-2.17.36-5.22.82-8.89,1.19-5.88.59-16.1,1.56-28.84-.2-5.01-.69-11.68-1.98-19.36-4.54,3.42.29,7.74.33,12.64-.4,7-1.03,12.57-3.25,16.4-5.14-2.76.42-7.02.96-12.25,1.19-22.24.96-39.84-4.77-50.37-8.3-4.11-1.38-9.86-3.47-16.59-6.52,3.43.42,8.16.6,13.63-.4,8.39-1.53,14.51-5.1,17.98-7.51-7.6.96-14.11,1.39-19.16,1.58-23.12.89-32.81-2.42-39.78-2.09-.39.02-1.8.1-1.9-.28-.18-.66,3.68-2.25,4.94-2.77,6.84-2.81,20.35-2.82,30.42-2.37-4.37-.99-11-2.27-19.16-2.96-11.91-1.01-17.34.06-27.65-.59-6.19-.39-15.02-1.45-25.68-4.54,4.91.04,10.42-.26,16.4-1.19,15.05-2.32,26.96-7.63,35.16-12.25-3.18.8-6.48,1.53-9.88,2.17-21.35,4.04-40.93,3.51-57.48,1.19,4.63-1.37,10.88-2.54,18.17-1.98,2.05.16,3.96.44,5.73.79-3.03-1.29-7.73-3.12-13.63-4.74-14.61-4.01-23.99-3.27-36.15-4.54-7.76-.81-18.93-2.68-32.4-7.51-1.93-1.72-3.94-3.95-3.36-5.53.77-2.1,5.78-2.11,16.4-1.38,21.2,1.45,29.96,3.43,43.26,2.17,3.74-.35,6.73-.86,8.49-1.19-7.85-.23-16.03-.74-24.49-1.58-29.99-2.99-56.38-9.5-78.62-16.99,3.02.34,6.55.49,10.47.2,8-.59,14.47-2.77,18.96-4.74-3.16.02-7.81,0-13.43-.2-15.7-.58-26.48-.97-35.56-3.75-6.34-1.95-19.1-7.28-31.41-24.3-4.87,1.19-9.74,2.37-14.62,3.56Z"/>
  </g>
  <g id="Layer_5" data-name="Layer 5">
    <path class="cls-8" d="m429.91,213.37c3.83,1.57,8.03-.18,9.43-3.31,1.58-3.53-.55-8.42-5.1-9.69"/>
    <path class="cls-8" d="m434.24,225.3c3.83,1.57,8.03-.18,9.43-3.31,1.58-3.53-.55-8.42-5.1-9.69"/>
    <path class="cls-8" d="m439.85,211.58c3.83,1.57,8.03-.18,9.43-3.31,1.58-3.53-.55-8.42-5.1-9.69"/>
    <path class="cls-8" d="m201.09,124.3c2.53,3.29,7.04,3.87,9.83,1.86,3.13-2.27,3.75-7.57.44-10.95"/>
    <path class="cls-8" d="m198.86,136.81c2.53,3.29,7.04,3.87,9.83,1.86,3.13-2.27,3.75-7.57.44-10.95"/>
    <path class="cls-8" d="m210.6,127.74c2.53,3.29,7.04,3.87,9.83,1.86,3.13-2.27,3.75-7.57.44-10.95"/>
    <path class="cls-8" d="m410.01,217.23c2.53,3.28,7.04,3.87,9.82,1.86,3.13-2.26,3.74-7.57.44-10.94"/>
    <path class="cls-8" d="m210.6,269.25c3.95,1.26,7.99-.84,9.13-4.08,1.28-3.65-1.24-8.36-5.88-9.24"/>
    <path class="cls-8" d="m215.9,280.8c3.95,1.26,7.99-.84,9.13-4.08,1.28-3.65-1.24-8.36-5.88-9.24"/>
    <path class="cls-8" d="m220.38,266.65c3.95,1.26,7.99-.84,9.13-4.08,1.28-3.65-1.24-8.36-5.88-9.24"/>
    <path class="cls-8" d="m619.04,251.61c3.3,2.51,7.8,1.91,9.97-.76,2.44-3,1.65-8.28-2.42-10.67"/>
    <path class="cls-8" d="m514.44,403.59c-3.94,1.29-5.99,5.35-5.02,8.64,1.09,3.71,5.89,6.05,10.17,4.06"/>
    <path class="cls-8" d="m503.4,397.32c-3.94,1.29-5.99,5.35-5.02,8.64,1.09,3.71,5.89,6.05,10.17,4.06"/>
    <path class="cls-8" d="m508.03,411.4c-3.94,1.29-5.99,5.35-5.02,8.64,1.09,3.71,5.89,6.05,10.17,4.06"/>
    <path class="cls-8" d="m527.06,387.73c-4.06-.85-7.86,1.63-8.67,4.97-.91,3.75,2.06,8.19,6.77,8.6"/>
    <path class="cls-8" d="m306.6,427.7c-3.21,2.63-3.66,7.15-1.57,9.88,2.35,3.07,7.68,3.53,10.95.12"/>
    <path class="cls-8" d="m292.03,424.83c-3.21,2.63-3.66,7.15-1.57,9.88,2.35,3.07,7.68,3.53,10.95.12"/>
    <path class="cls-8" d="m301.44,436.3c-3.21,2.63-3.66,7.15-1.57,9.88,2.35,3.07,7.68,3.53,10.95.12"/>
    <path class="cls-8" d="m266.3,435.91c-3.21,2.63-3.66,7.15-1.57,9.88,2.35,3.07,7.68,3.53,10.95.12"/>
  </g>
</svg>